<svg xmlns="http://www.w3.org/2000/svg" viewBox="0 0 512 512" width="512" height="512">
  <defs>
    <clipPath id="clip-front-quasar"><path d="M 275.8 236.2 L 276.6 228.1 L 279.6 222.1 L 282.9 216.4 L 286.4 211.0 L 290.0 205.6 L 293.7 200.4 L 297.5 195.2 L 301.3 190.0 L 305.1 184.9 L 309.0 179.9 L 313.0 174.8 L 316.9 169.8 L 320.9 164.8 L 324.8 159.8 L 328.8 154.9 L 332.8 149.9 L 336.9 145.0 L 340.9 140.1 L 345.0 135.2 L 349.0 130.3 L 353.1 125.4 L 357.2 120.6 L 361.3 115.7 L 365.4 110.8 L 369.5 106.0 L 373.6 101.1 L 377.7 96.3 L 381.9 91.5 L 386.0 86.7 L 390.1 81.9 L 394.3 77.0 L 398.5 72.2 L 402.6 67.4 L 406.8 62.6 L 410.9 57.9 L 415.1 53.1 L 419.3 48.3 L 423.5 43.5 L 427.7 38.7 L 431.8 34.0 L 436.0 29.2 L 440.2 24.4 L 444.4 19.7 L 448.6 14.9 L 452.8 10.2 L 457.0 5.4 L 461.2 0.7 L 465.5 -4.1 L 469.7 -8.8 L 473.9 -13.5 L 478.1 -18.3 L 482.3 -23.0 L 486.6 -27.7 L 490.8 -32.5 L 495.0 -37.2 L 499.3 -41.9 L 503.5 -46.6 L 507.7 -51.4 L 512.0 -56.1 L 516.2 -60.8 L 572.8 -4.2 L 568.1 0.0 L 563.4 4.3 L 558.6 8.5 L 553.9 12.7 L 549.2 17.0 L 544.5 21.2 L 539.7 25.4 L 535.0 29.7 L 530.3 33.9 L 525.5 38.1 L 520.8 42.3 L 516.1 46.5 L 511.3 50.8 L 506.6 55.0 L 501.8 59.2 L 497.1 63.4 L 492.3 67.6 L 487.6 71.8 L 482.8 76.0 L 478.0 80.2 L 473.3 84.3 L 468.5 88.5 L 463.7 92.7 L 458.9 96.9 L 454.1 101.1 L 449.4 105.2 L 444.6 109.4 L 439.8 113.5 L 435.0 117.7 L 430.1 121.9 L 425.3 126.0 L 420.5 130.1 L 415.7 134.3 L 410.9 138.4 L 406.0 142.5 L 401.2 146.6 L 396.3 150.7 L 391.4 154.8 L 386.6 158.9 L 381.7 163.0 L 376.8 167.0 L 371.9 171.1 L 367.0 175.1 L 362.1 179.2 L 357.1 183.2 L 352.2 187.2 L 347.2 191.1 L 342.2 195.1 L 337.2 199.0 L 332.1 203.0 L 327.1 206.9 L 322.0 210.7 L 316.8 214.5 L 311.6 218.3 L 306.4 222.0 L 301.0 225.6 L 295.6 229.1 L 289.9 232.4 L 283.9 235.4 L 275.8 236.2 Z"/></clipPath>
    <clipPath id="disk-clip-quasar"><path d="M 432.8 432.8 L 424.7 440.4 L 416.1 447.5 L 407.1 454.1 L 397.7 460.2 L 387.9 465.6 L 377.7 470.6 L 367.2 474.9 L 356.4 478.6 L 345.3 481.7 L 334.0 484.2 L 322.4 486.1 L 310.7 487.3 L 298.8 487.9 L 286.8 487.9 L 274.8 487.2 L 262.6 486.0 L 250.5 484.0 L 238.3 481.5 L 226.3 478.3 L 214.3 474.5 L 202.4 470.1 L 190.6 465.2 L 179.1 459.6 L 167.7 453.5 L 156.6 446.9 L 145.8 439.7 L 135.2 432.1 L 125.0 423.9 L 115.2 415.3 L 105.7 406.3 L 96.7 396.8 L 88.1 387.0 L 79.9 376.8 L 72.3 366.2 L 65.1 355.4 L 58.5 344.3 L 52.4 332.9 L 46.8 321.4 L 41.9 309.6 L 37.5 297.7 L 33.7 285.7 L 30.5 273.7 L 28.0 261.5 L 26.0 249.4 L 24.8 237.3 L 24.1 225.2 L 24.1 213.2 L 24.7 201.3 L 25.9 189.6 L 27.8 178.0 L 30.3 166.7 L 33.4 155.6 L 37.1 144.8 L 41.4 134.3 L 46.4 124.1 L 51.8 114.3 L 57.9 104.9 L 64.5 95.9 L 71.6 87.3 L 79.2 79.2 L 87.3 71.6 L 95.9 64.5 L 104.9 57.9 L 114.3 51.8 L 124.1 46.4 L 134.3 41.4 L 144.8 37.1 L 155.6 33.4 L 166.7 30.3 L 178.0 27.8 L 189.6 25.9 L 201.3 24.7 L 213.2 24.1 L 225.2 24.1 L 237.2 24.8 L 249.4 26.0 L 261.5 28.0 L 273.7 30.5 L 285.7 33.7 L 297.7 37.5 L 309.6 41.9 L 321.4 46.8 L 332.9 52.4 L 344.3 58.5 L 355.4 65.1 L 366.2 72.3 L 376.8 79.9 L 387.0 88.1 L 396.8 96.7 L 406.3 105.7 L 415.3 115.2 L 423.9 125.0 L 432.1 135.2 L 439.7 145.8 L 446.9 156.6 L 453.5 167.7 L 459.6 179.1 L 465.2 190.6 L 470.1 202.4 L 474.5 214.3 L 478.3 226.3 L 481.5 238.3 L 484.0 250.5 L 486.0 262.6 L 487.2 274.7 L 487.9 286.8 L 487.9 298.8 L 487.3 310.7 L 486.1 322.4 L 484.2 334.0 L 481.7 345.3 L 478.6 356.4 L 474.9 367.2 L 470.6 377.7 L 465.6 387.9 L 460.2 397.7 L 454.1 407.1 L 447.5 416.1 L 440.4 424.7 Z"/></clipPath>
  </defs>
  <rect width="512" height="512" fill="#000"/>
  <path d="M 432.8 432.8 L 424.7 440.4 L 416.1 447.5 L 407.1 454.1 L 397.7 460.2 L 387.9 465.6 L 377.7 470.6 L 367.2 474.9 L 356.4 478.6 L 345.3 481.7 L 334.0 484.2 L 322.4 486.1 L 310.7 487.3 L 298.8 487.9 L 286.8 487.9 L 274.8 487.2 L 262.6 486.0 L 250.5 484.0 L 238.3 481.5 L 226.3 478.3 L 214.3 474.5 L 202.4 470.1 L 190.6 465.2 L 179.1 459.6 L 167.7 453.5 L 156.6 446.9 L 145.8 439.7 L 135.2 432.1 L 125.0 423.9 L 115.2 415.3 L 105.7 406.3 L 96.7 396.8 L 88.1 387.0 L 79.9 376.8 L 72.3 366.2 L 65.1 355.4 L 58.5 344.3 L 52.4 332.9 L 46.8 321.4 L 41.9 309.6 L 37.5 297.7 L 33.7 285.7 L 30.5 273.7 L 28.0 261.5 L 26.0 249.4 L 24.8 237.3 L 24.1 225.2 L 24.1 213.2 L 24.7 201.3 L 25.9 189.6 L 27.8 178.0 L 30.3 166.7 L 33.4 155.6 L 37.1 144.8 L 41.4 134.3 L 46.4 124.1 L 51.8 114.3 L 57.9 104.9 L 64.5 95.9 L 71.6 87.3 L 79.2 79.2 L 87.3 71.6 L 95.9 64.5 L 104.9 57.9 L 114.3 51.8 L 124.1 46.4 L 134.3 41.4 L 144.8 37.1 L 155.6 33.4 L 166.7 30.3 L 178.0 27.8 L 189.6 25.9 L 201.3 24.7 L 213.2 24.1 L 225.2 24.1 L 237.2 24.8 L 249.4 26.0 L 261.5 28.0 L 273.7 30.5 L 285.7 33.7 L 297.7 37.5 L 309.6 41.9 L 321.4 46.8 L 332.9 52.4 L 344.3 58.5 L 355.4 65.1 L 366.2 72.3 L 376.8 79.9 L 387.0 88.1 L 396.8 96.7 L 406.3 105.7 L 415.3 115.2 L 423.9 125.0 L 432.1 135.2 L 439.7 145.8 L 446.9 156.6 L 453.5 167.7 L 459.6 179.1 L 465.2 190.6 L 470.1 202.4 L 474.5 214.3 L 478.3 226.3 L 481.5 238.3 L 484.0 250.5 L 486.0 262.6 L 487.2 274.7 L 487.9 286.8 L 487.9 298.8 L 487.3 310.7 L 486.1 322.4 L 484.2 334.0 L 481.7 345.3 L 478.6 356.4 L 474.9 367.2 L 470.6 377.7 L 465.6 387.9 L 460.2 397.7 L 454.1 407.1 L 447.5 416.1 L 440.4 424.7 Z" fill="#cc0000"/>
  <g clip-path="url(#disk-clip-quasar)">
  <path d="M 259.4 269.9 L 259.2 272.5 L 258.9 274.6 L 258.5 276.5 L 258.0 278.2 L 257.4 279.9 L 256.7 281.4 L 255.9 282.9 L 255.0 284.3 L 254.0 285.6 L 252.9 286.8 L 251.7 287.9 L 250.5 289.0 L 249.2 290.0 L 247.8 290.9 L 246.3 291.7 L 244.8 292.5 L 243.2 293.2 L 241.5 293.7 L 239.8 294.2 L 238.0 294.7 L 236.1 295.0 L 234.2 295.2 L 232.3 295.4 L 230.3 295.4 L 228.2 295.3 L 226.2 295.2 L 224.0 295.0 L 221.9 294.6 L 219.7 294.2 L 217.5 293.6 L 215.3 293.0 L 213.0 292.2 L 210.8 291.4 L 208.5 290.4 L 206.2 289.3 L 204.0 288.2 L 201.7 286.9 L 199.4 285.5 L 197.2 284.1 L 195.0 282.5 L 192.8 280.8 L 190.6 279.1 L 188.4 277.2 L 186.3 275.2 L 184.3 273.2 L 182.2 271.0 L 180.3 268.8 L 178.3 266.4 L 176.5 264.0 L 174.7 261.5 L 172.9 258.9 L 171.3 256.3 L 169.7 253.5 L 168.1 250.7 L 166.7 247.8 L 165.4 244.9 L 164.1 241.9 L 162.9 238.8 L 161.8 235.7 L 160.9 232.6 L 160.0 229.3 L 159.2 226.1 L 158.6 222.8 L 158.0 219.5 L 157.6 216.1 L 157.3 212.7 L 157.1 209.3 L 157.0 205.9 L 157.0 202.5 L 157.2 199.0 L 157.5 195.6 L 157.9 192.2 L 158.4 188.7 L 159.1 185.3 L 159.9 181.9 L 160.8 178.6 L 161.9 175.2 L 163.1 171.9 L 164.4 168.6 L 165.9 165.4 L 167.5 162.2 L 169.2 159.0 L 171.1 155.9 L 173.1 152.9 L 175.2 149.9 L 177.5 147.0 L 179.9 144.2 L 182.4 141.5 L 185.0 138.8 L 187.8 136.2 L 190.7 133.7 L 193.7 131.3 L 196.9 129.1 L 200.1 126.9 L 203.5 124.8 L 207.0 122.8 L 210.6 121.0 L 214.3 119.3 L 218.1 117.6 L 222.1 116.2 L 226.1 114.8 L 230.2 113.6 L 234.4 112.5 L 238.7 111.6 L 243.1 110.8 L 247.6 110.2 L 252.2 109.7 L 256.8 109.4 L 261.5 109.2 L 266.2 109.2 L 271.1 109.3 L 275.9 109.6 L 280.8 110.1 L 285.8 110.8 L 290.8 111.6 L 295.8 112.5 L 300.9 113.7 L 306.0 115.0 L 311.1 116.5 L 316.2 118.2 L 321.3 120.0 L 326.4 122.0 L 331.5 124.2 L 336.6 126.6 L 341.6 129.1 L 346.7 131.8 L 351.7 134.6 L 356.6 137.7 L 361.5 140.9 L 366.4 144.2 L 371.2 147.8 L 375.9 151.4 L 380.6 155.3 L 385.2 159.3 L 389.7 163.4 L 394.1 167.7 L 398.4 172.2 L 402.6 176.8 L 406.7 181.5 L 410.7 186.4 L 414.6 191.3 L 418.3 196.5 L 421.9 201.7 L 425.4 207.0 L 428.7 212.5 L 431.9 218.1 L 434.9 223.8 L 437.8 229.5 L 440.5 235.4 L 443.1 241.3 L 445.4 247.3 L 447.6 253.4 L 449.7 259.6 L 451.5 265.8 L 453.1 272.1 L 454.6 278.4 L 455.8 284.7 L 456.9 291.1 L 457.8 297.5 L 458.4 303.9 L 458.9 310.4 L 459.1 316.8 L 459.2 323.3 L 459.0 329.7 L 458.6 336.1 L 458.0 342.5 L 457.2 348.9 L 456.2 355.2 L 454.9 361.5 L 453.5 367.8 L 451.8 373.9 L 449.9 380.1 L 447.8 386.1 L 445.5 392.0 L 442.9 397.9 L 440.2 403.7 L 437.2 409.4 L 434.0 414.9 L 430.6 420.4 L 427.0 425.7 L 423.2 431.0 L 419.2 436.0 L 415.0 441.0 L 410.6 445.8 L 405.9 450.4 L 401.1 454.9 L 396.1 459.2 L 391.0 463.4 L 385.6 467.3 L 380.1 471.1 L 374.4 474.7 L 368.5 478.2 L 362.4 481.4 L 356.2 484.4 L 349.8 487.2 L 343.3 489.8 L 336.7 492.2 L 329.9 494.4 L 322.9 496.3 L 315.9 498.0 L 308.7 499.5 L 301.4 500.8 L 294.0 501.8 L 286.5 502.5 L 278.9 503.1 L 271.2 503.3 L 263.4 503.3 L 255.6 503.1 L 247.7 502.6 L 239.7 501.9 L 231.7 500.9 L 223.7 499.6 L 215.6 498.1 L 207.5 496.3 L 199.4 494.3 L 191.3 492.0 L 183.1 489.4 L 175.0 486.6 L 167.0 483.5 L 158.9 480.2 L 150.9 476.6 L 142.9 472.8 L 135.0 468.7 L 127.2 464.3 L 119.4 459.8 L 111.7 454.9 L 104.1 449.8 L 96.6 444.5 L 89.2 439.0 L 82.0 433.2 L 74.8 427.2 L 67.8 421.0 L 60.9 414.6 L 54.2 408.0 L 47.7 401.1 L 41.3 394.1 L 35.1 386.9 L 29.0 379.5 L 23.2 371.9 L 17.6 364.2 L 12.1 356.3 L 6.9 348.2 L 1.9 340.0 L -2.9 331.6 L -7.4 323.1 L -11.7 314.5 L -15.7 305.8 L -19.6 296.9 L -23.1 288.0 L -26.4 279.0 L -29.4 269.9 L -32.2 260.7 L -34.6 251.4 L -36.8 242.1 L -38.7 232.8 L -40.4 223.4 L -41.7 214.0 L -42.7 204.6 L -43.5 195.2 L -43.9 185.8 L -44.1 176.4 L -43.9 167.0 L -43.4 157.7 L -42.7 148.4 L -41.6 139.1 L -40.2 130.0 L -38.5 120.9 L -36.5 111.8 L -34.2 102.9 L -31.6 94.1 L -28.7 85.4 L -25.5 76.8 L -22.0 68.3 L -18.2 60.0 L -14.1 51.8 L -9.7 43.8 L -5.1 35.9 L -0.1 28.3 L 5.2 20.8 L 10.7 13.5 L 16.5 6.4 L 22.6 -0.5 L 28.9 -7.2 L 35.5 -13.7 L 42.4 -19.9 L 49.5 -25.9 L 56.9 -31.6 L 64.5 -37.1 L 72.4 -42.3 L 80.5 -47.3 L 88.8 -52.0 L 97.3 -56.4 L 106.0 -60.5 L 114.9 -64.3 L 124.0 -67.9 L 133.3 -71.1 L 142.8 -74.0 L 152.5 -76.6 L 162.3 -78.9 L 172.2 -80.9 A 10.0 10.0 0 0 1 168.7 -100.5 L 158.0 -98.4 L 147.6 -95.9 L 137.3 -93.1 L 127.1 -89.9 L 117.2 -86.4 L 107.4 -82.6 L 97.9 -78.5 L 88.5 -74.0 L 79.4 -69.2 L 70.5 -64.1 L 61.8 -58.8 L 53.4 -53.1 L 45.2 -47.2 L 37.3 -40.9 L 29.6 -34.5 L 22.3 -27.7 L 15.2 -20.7 L 8.3 -13.5 L 1.8 -6.0 L -4.4 1.6 L -10.3 9.5 L -16.0 17.6 L -21.3 25.9 L -26.3 34.4 L -31.0 43.0 L -35.3 51.9 L -39.4 60.8 L -43.1 69.9 L -46.5 79.2 L -49.6 88.5 L -52.3 98.0 L -54.7 107.5 L -56.8 117.2 L -58.6 126.9 L -60.0 136.7 L -61.1 146.6 L -61.9 156.5 L -62.3 166.5 L -62.4 176.4 L -62.3 186.4 L -61.7 196.4 L -60.9 206.4 L -59.8 216.4 L -58.3 226.3 L -56.5 236.2 L -54.5 246.1 L -52.1 255.9 L -49.5 265.6 L -46.5 275.3 L -43.3 284.9 L -39.8 294.4 L -36.0 303.8 L -32.0 313.1 L -27.7 322.2 L -23.1 331.3 L -18.3 340.2 L -13.2 349.0 L -8.0 357.6 L -2.4 366.0 L 3.3 374.3 L 9.3 382.4 L 15.4 390.3 L 21.8 398.1 L 28.3 405.6 L 35.1 413.0 L 42.0 420.1 L 49.1 427.0 L 56.3 433.7 L 63.7 440.2 L 71.2 446.5 L 78.9 452.5 L 86.7 458.3 L 94.6 463.8 L 102.6 469.1 L 110.7 474.1 L 118.9 478.9 L 127.1 483.5 L 135.5 487.7 L 143.9 491.7 L 152.4 495.5 L 160.9 498.9 L 169.4 502.1 L 178.0 505.1 L 186.6 507.7 L 195.2 510.1 L 203.8 512.2 L 212.4 514.1 L 221.0 515.6 L 229.5 516.9 L 238.0 517.9 L 246.5 518.7 L 254.9 519.2 L 263.2 519.4 L 271.5 519.3 L 279.7 518.9 L 287.9 518.3 L 295.9 517.5 L 303.8 516.3 L 311.6 515.0 L 319.3 513.3 L 326.9 511.4 L 334.4 509.3 L 341.7 506.9 L 348.9 504.3 L 355.9 501.4 L 362.7 498.3 L 369.4 495.0 L 376.0 491.5 L 382.3 487.8 L 388.5 483.8 L 394.5 479.6 L 400.2 475.3 L 405.8 470.7 L 411.2 466.0 L 416.4 461.1 L 421.4 456.0 L 426.1 450.8 L 430.7 445.4 L 435.0 439.8 L 439.1 434.2 L 442.9 428.3 L 446.6 422.4 L 450.0 416.3 L 453.2 410.1 L 456.1 403.9 L 458.8 397.5 L 461.3 391.0 L 463.5 384.5 L 465.5 377.9 L 467.3 371.2 L 468.8 364.5 L 470.1 357.7 L 471.2 350.9 L 472.0 344.0 L 472.6 337.2 L 472.9 330.3 L 473.1 323.4 L 473.0 316.5 L 472.6 309.6 L 472.1 302.7 L 471.3 295.8 L 470.4 289.0 L 469.2 282.2 L 467.8 275.5 L 466.2 268.8 L 464.4 262.1 L 462.4 255.5 L 460.2 249.0 L 457.8 242.6 L 455.2 236.2 L 452.5 230.0 L 449.6 223.8 L 446.5 217.7 L 443.2 211.8 L 439.8 205.9 L 436.3 200.1 L 432.5 194.5 L 428.7 189.0 L 424.7 183.7 L 420.6 178.4 L 416.3 173.3 L 411.9 168.4 L 407.5 163.6 L 402.9 158.9 L 398.2 154.4 L 393.4 150.1 L 388.5 145.9 L 383.5 141.9 L 378.5 138.0 L 373.4 134.3 L 368.2 130.8 L 363.0 127.5 L 357.7 124.3 L 352.4 121.4 L 347.0 118.5 L 341.6 115.9 L 336.2 113.5 L 330.8 111.2 L 325.3 109.1 L 319.9 107.2 L 314.4 105.5 L 309.0 104.0 L 303.5 102.6 L 298.1 101.5 L 292.7 100.5 L 287.4 99.7 L 282.0 99.1 L 276.7 98.6 L 271.5 98.3 L 266.3 98.2 L 261.2 98.3 L 256.1 98.6 L 251.1 99.0 L 246.2 99.6 L 241.4 100.3 L 236.6 101.2 L 232.0 102.3 L 227.4 103.5 L 222.9 104.9 L 218.5 106.4 L 214.3 108.1 L 210.1 109.9 L 206.1 111.9 L 202.1 114.0 L 198.3 116.2 L 194.7 118.5 L 191.1 121.0 L 187.7 123.6 L 184.4 126.2 L 181.3 129.0 L 178.3 131.9 L 175.4 134.9 L 172.7 138.0 L 170.1 141.1 L 167.7 144.4 L 165.4 147.7 L 163.2 151.1 L 161.2 154.5 L 159.4 158.0 L 157.7 161.5 L 156.2 165.1 L 154.8 168.8 L 153.5 172.4 L 152.4 176.1 L 151.5 179.9 L 150.7 183.6 L 150.0 187.3 L 149.5 191.1 L 149.1 194.8 L 148.8 198.6 L 148.7 202.3 L 148.8 206.1 L 148.9 209.8 L 149.2 213.4 L 149.7 217.1 L 150.2 220.7 L 150.9 224.3 L 151.7 227.8 L 152.6 231.3 L 153.6 234.8 L 154.7 238.1 L 155.9 241.5 L 157.3 244.7 L 158.7 247.9 L 160.2 251.1 L 161.8 254.1 L 163.5 257.1 L 165.3 260.0 L 167.2 262.8 L 169.1 265.5 L 171.1 268.1 L 173.2 270.7 L 175.3 273.1 L 177.5 275.4 L 179.7 277.7 L 182.0 279.8 L 184.3 281.9 L 186.7 283.8 L 189.1 285.6 L 191.5 287.4 L 194.0 289.0 L 196.4 290.5 L 198.9 291.9 L 201.4 293.2 L 203.9 294.3 L 206.4 295.4 L 208.9 296.3 L 211.4 297.2 L 213.9 297.9 L 216.3 298.5 L 218.7 299.0 L 221.1 299.4 L 223.5 299.6 L 225.9 299.8 L 228.2 299.9 L 230.4 299.8 L 232.6 299.6 L 234.8 299.3 L 236.9 299.0 L 238.9 298.5 L 240.9 297.9 L 242.7 297.2 L 244.6 296.4 L 246.3 295.6 L 248.0 294.6 L 249.5 293.5 L 251.0 292.4 L 252.4 291.2 L 253.7 289.9 L 254.9 288.5 L 255.9 287.0 L 256.9 285.5 L 257.7 283.9 L 258.4 282.2 L 259.0 280.4 L 259.5 278.6 L 259.8 276.7 L 259.9 274.7 L 259.9 272.5 L 259.4 269.9 Z" fill="#ffcc00"/>
  <path d="M 248.9 266.7 L 246.9 268.1 L 245.2 269.1 L 243.6 269.9 L 241.9 270.5 L 240.2 271.1 L 238.6 271.5 L 236.8 271.7 L 235.1 271.9 L 233.4 271.9 L 231.6 271.9 L 229.8 271.7 L 228.0 271.5 L 226.2 271.1 L 224.4 270.6 L 222.6 270.1 L 220.7 269.4 L 218.9 268.6 L 217.1 267.7 L 215.3 266.8 L 213.5 265.7 L 211.7 264.6 L 209.9 263.3 L 208.2 262.0 L 206.5 260.5 L 204.8 259.0 L 203.2 257.4 L 201.6 255.7 L 200.1 254.0 L 198.6 252.1 L 197.2 250.2 L 195.8 248.2 L 194.5 246.1 L 193.2 244.0 L 192.0 241.8 L 190.9 239.5 L 189.9 237.2 L 188.9 234.8 L 188.0 232.4 L 187.2 229.9 L 186.5 227.4 L 185.9 224.8 L 185.4 222.2 L 185.0 219.6 L 184.6 216.9 L 184.4 214.2 L 184.3 211.5 L 184.3 208.8 L 184.3 206.0 L 184.5 203.3 L 184.8 200.6 L 185.2 197.8 L 185.8 195.1 L 186.4 192.4 L 187.2 189.6 L 188.0 187.0 L 189.0 184.3 L 190.1 181.6 L 191.3 179.0 L 192.6 176.5 L 194.1 173.9 L 195.6 171.4 L 197.3 169.0 L 199.1 166.6 L 201.0 164.3 L 203.0 162.0 L 205.1 159.8 L 207.3 157.7 L 209.7 155.6 L 212.1 153.7 L 214.7 151.8 L 217.4 150.0 L 220.2 148.2 L 223.0 146.6 L 226.0 145.1 L 229.1 143.7 L 232.3 142.3 L 235.5 141.1 L 238.9 140.0 L 242.3 139.0 L 245.9 138.2 L 249.5 137.4 L 253.2 136.8 L 256.9 136.3 L 260.8 135.9 L 264.7 135.7 L 268.6 135.6 L 272.7 135.7 L 276.7 135.8 L 280.9 136.2 L 285.0 136.6 L 289.2 137.2 L 293.5 138.0 L 297.8 138.9 L 302.1 140.0 L 306.4 141.2 L 310.7 142.5 L 315.1 144.1 L 319.4 145.7 L 323.8 147.5 L 328.1 149.5 L 332.5 151.6 L 336.8 153.9 L 341.1 156.3 L 345.3 158.9 L 349.5 161.6 L 353.7 164.5 L 357.9 167.5 L 362.0 170.6 L 366.0 173.9 L 369.9 177.4 L 373.8 180.9 L 377.6 184.6 L 381.4 188.5 L 385.0 192.5 L 388.6 196.5 L 392.1 200.8 L 395.4 205.1 L 398.7 209.5 L 401.8 214.1 L 404.8 218.7 L 407.7 223.5 L 410.5 228.4 L 413.1 233.3 L 415.6 238.4 L 418.0 243.5 L 420.2 248.7 L 422.2 254.0 L 424.1 259.3 L 425.9 264.7 L 427.5 270.2 L 428.9 275.7 L 430.1 281.2 L 431.2 286.8 L 432.1 292.5 L 432.8 298.1 L 433.4 303.8 L 433.8 309.5 L 433.9 315.1 L 433.9 320.8 L 433.7 326.5 L 433.3 332.2 L 432.8 337.9 L 432.0 343.5 L 431.0 349.1 L 429.9 354.6 L 428.5 360.2 L 427.0 365.6 L 425.2 371.0 L 423.3 376.4 L 421.1 381.6 L 418.8 386.8 L 416.3 391.9 L 413.6 397.0 L 410.7 401.9 L 407.6 406.7 L 404.3 411.5 L 400.8 416.1 L 397.2 420.5 L 393.3 424.9 L 389.3 429.1 L 385.1 433.2 L 380.8 437.2 L 376.2 441.0 L 371.5 444.7 L 366.6 448.2 L 361.6 451.5 L 356.4 454.7 L 351.0 457.6 L 345.5 460.5 L 339.9 463.1 L 334.1 465.5 L 328.2 467.8 L 322.1 469.8 L 315.9 471.7 L 309.6 473.4 L 303.2 474.8 L 296.7 476.0 L 290.0 477.0 L 283.3 477.8 L 276.5 478.4 L 269.6 478.8 L 262.6 478.9 L 255.5 478.8 L 248.4 478.5 L 241.2 477.9 L 234.0 477.1 L 226.7 476.1 L 219.4 474.8 L 212.0 473.3 L 204.7 471.6 L 197.3 469.6 L 189.9 467.4 L 182.6 464.9 L 175.2 462.2 L 167.9 459.3 L 160.6 456.1 L 153.3 452.7 L 146.1 449.1 L 138.9 445.2 L 131.8 441.1 L 124.7 436.8 L 117.8 432.3 L 110.9 427.5 L 104.1 422.5 L 97.4 417.3 L 90.8 411.9 L 84.4 406.3 L 78.1 400.5 L 71.9 394.6 L 65.8 388.4 L 59.9 382.0 L 54.2 375.5 L 48.6 368.7 L 43.2 361.9 L 37.9 354.8 L 32.9 347.6 L 28.0 340.2 L 23.4 332.8 L 18.9 325.1 L 14.7 317.4 L 10.6 309.5 L 6.8 301.5 L 3.3 293.4 L -0.1 285.2 L -3.2 277.0 L -6.0 268.6 L -8.6 260.2 L -11.0 251.7 L -13.1 243.1 L -14.9 234.5 L -16.5 225.9 L -17.8 217.3 L -18.9 208.6 L -19.6 199.9 L -20.1 191.2 L -20.4 182.5 L -20.3 173.9 L -20.0 165.3 L -19.3 156.7 L -18.4 148.1 L -17.2 139.6 L -15.8 131.2 L -14.0 122.8 L -12.0 114.5 L -9.6 106.3 L -7.0 98.2 L -4.2 90.3 L -1.0 82.4 L 2.5 74.6 L 6.2 67.0 L 10.2 59.6 L 14.4 52.2 L 19.0 45.1 L 23.8 38.1 L 28.8 31.3 L 34.2 24.6 L 39.7 18.2 L 45.6 11.9 L 51.6 5.9 L 58.0 0.0 L 64.5 -5.6 L 71.3 -11.0 L 78.3 -16.1 L 85.6 -21.0 L 93.0 -25.7 L 100.7 -30.1 L 108.6 -34.3 L 116.6 -38.2 L 124.9 -41.8 L 133.4 -45.2 L 142.0 -48.3 L 150.8 -51.0 L 159.7 -53.5 L 168.8 -55.8 L 178.1 -57.7 L 187.5 -59.3 L 197.0 -60.6 L 206.6 -61.5 L 216.4 -62.2 L 226.2 -62.6 L 236.2 -62.6 L 246.2 -62.3 L 256.3 -61.7 L 266.4 -60.8 L 276.6 -59.5 L 286.9 -58.0 L 297.2 -56.1 L 307.5 -53.8 L 317.8 -51.3 L 328.1 -48.4 L 338.4 -45.2 L 348.6 -41.6 L 358.9 -37.8 L 369.1 -33.6 L 379.2 -29.1 L 389.3 -24.3 L 399.3 -19.2 L 409.2 -13.8 L 419.0 -8.0 L 428.7 -2.0 A 10.0 10.0 0 0 1 439.4 -18.9 L 429.2 -25.1 L 418.9 -31.1 L 408.5 -36.8 L 398.0 -42.1 L 387.4 -47.1 L 376.8 -51.8 L 366.0 -56.1 L 355.3 -60.2 L 344.4 -63.8 L 333.6 -67.2 L 322.7 -70.2 L 311.8 -72.8 L 301.0 -75.2 L 290.1 -77.1 L 279.3 -78.8 L 268.5 -80.0 L 257.7 -81.0 L 247.0 -81.6 L 236.4 -81.8 L 225.8 -81.8 L 215.3 -81.3 L 205.0 -80.6 L 194.7 -79.5 L 184.6 -78.1 L 174.5 -76.3 L 164.7 -74.2 L 154.9 -71.8 L 145.3 -69.1 L 135.9 -66.1 L 126.7 -62.7 L 117.6 -59.1 L 108.8 -55.2 L 100.1 -50.9 L 91.7 -46.4 L 83.4 -41.6 L 75.4 -36.5 L 67.6 -31.2 L 60.1 -25.6 L 52.8 -19.7 L 45.7 -13.6 L 38.9 -7.3 L 32.4 -0.8 L 26.1 6.0 L 20.2 13.0 L 14.4 20.2 L 9.0 27.6 L 3.9 35.2 L -1.0 42.9 L -5.5 50.8 L -9.8 58.9 L -13.8 67.1 L -17.4 75.5 L -20.8 83.9 L -23.9 92.5 L -26.6 101.2 L -29.1 110.0 L -31.2 118.9 L -33.0 127.9 L -34.6 136.9 L -35.8 146.0 L -36.7 155.2 L -37.3 164.3 L -37.7 173.5 L -37.7 182.7 L -37.4 192.0 L -36.8 201.2 L -36.0 210.4 L -34.8 219.6 L -33.4 228.8 L -31.7 237.9 L -29.7 247.0 L -27.4 256.0 L -24.9 265.0 L -22.1 273.9 L -19.0 282.7 L -15.7 291.4 L -12.1 300.0 L -8.3 308.5 L -4.3 316.9 L 0.0 325.2 L 4.5 333.3 L 9.2 341.3 L 14.2 349.2 L 19.3 356.9 L 24.7 364.4 L 30.2 371.8 L 35.9 379.0 L 41.8 386.0 L 47.9 392.9 L 54.1 399.5 L 60.5 406.0 L 67.1 412.3 L 73.8 418.3 L 80.6 424.2 L 87.5 429.8 L 94.6 435.2 L 101.7 440.4 L 109.0 445.4 L 116.4 450.1 L 123.8 454.6 L 131.3 458.9 L 138.9 462.9 L 146.5 466.7 L 154.2 470.2 L 162.0 473.5 L 169.7 476.6 L 177.5 479.4 L 185.3 482.0 L 193.2 484.3 L 201.0 486.3 L 208.8 488.1 L 216.6 489.7 L 224.4 491.0 L 232.1 492.0 L 239.8 492.8 L 247.5 493.4 L 255.1 493.7 L 262.6 493.7 L 270.1 493.5 L 277.5 493.1 L 284.8 492.4 L 292.1 491.5 L 299.2 490.4 L 306.2 489.0 L 313.1 487.4 L 319.9 485.6 L 326.5 483.5 L 333.1 481.2 L 339.5 478.8 L 345.7 476.1 L 351.8 473.2 L 357.8 470.1 L 363.5 466.8 L 369.2 463.3 L 374.6 459.6 L 379.9 455.8 L 385.0 451.8 L 389.9 447.6 L 394.6 443.2 L 399.1 438.7 L 403.5 434.1 L 407.6 429.3 L 411.5 424.4 L 415.3 419.3 L 418.8 414.2 L 422.1 408.9 L 425.2 403.5 L 428.1 398.0 L 430.8 392.4 L 433.3 386.8 L 435.6 381.0 L 437.6 375.2 L 439.4 369.3 L 441.1 363.4 L 442.5 357.4 L 443.7 351.4 L 444.7 345.4 L 445.4 339.3 L 446.0 333.2 L 446.4 327.1 L 446.5 321.0 L 446.5 314.9 L 446.2 308.8 L 445.8 302.7 L 445.1 296.7 L 444.3 290.6 L 443.3 284.6 L 442.1 278.7 L 440.7 272.8 L 439.1 266.9 L 437.4 261.1 L 435.5 255.4 L 433.4 249.7 L 431.2 244.2 L 428.8 238.7 L 426.2 233.2 L 423.5 227.9 L 420.7 222.7 L 417.7 217.6 L 414.6 212.6 L 411.3 207.7 L 407.9 202.9 L 404.5 198.2 L 400.9 193.7 L 397.1 189.2 L 393.3 184.9 L 389.4 180.8 L 385.4 176.8 L 381.3 172.9 L 377.2 169.2 L 372.9 165.6 L 368.6 162.1 L 364.3 158.8 L 359.9 155.7 L 355.4 152.7 L 350.9 149.9 L 346.3 147.2 L 341.7 144.7 L 337.1 142.3 L 332.5 140.1 L 327.8 138.1 L 323.2 136.2 L 318.5 134.5 L 313.8 132.9 L 309.2 131.5 L 304.5 130.3 L 299.9 129.2 L 295.3 128.3 L 290.7 127.6 L 286.2 127.0 L 281.7 126.5 L 277.2 126.3 L 272.8 126.1 L 268.5 126.2 L 264.2 126.3 L 260.0 126.6 L 255.8 127.1 L 251.7 127.7 L 247.7 128.5 L 243.8 129.4 L 239.9 130.4 L 236.2 131.5 L 232.5 132.8 L 229.0 134.2 L 225.5 135.7 L 222.1 137.4 L 218.9 139.1 L 215.8 141.0 L 212.7 142.9 L 209.8 145.0 L 207.0 147.2 L 204.3 149.4 L 201.8 151.7 L 199.4 154.2 L 197.1 156.7 L 194.9 159.2 L 192.8 161.9 L 190.9 164.6 L 189.1 167.3 L 187.5 170.1 L 185.9 173.0 L 184.5 175.8 L 183.3 178.8 L 182.1 181.7 L 181.1 184.7 L 180.3 187.7 L 179.5 190.7 L 178.9 193.7 L 178.4 196.8 L 178.1 199.8 L 177.8 202.8 L 177.7 205.8 L 177.7 208.8 L 177.8 211.8 L 178.0 214.7 L 178.4 217.7 L 178.8 220.5 L 179.4 223.4 L 180.0 226.2 L 180.8 229.0 L 181.6 231.7 L 182.6 234.3 L 183.6 236.9 L 184.7 239.5 L 186.0 241.9 L 187.2 244.3 L 188.6 246.7 L 190.1 248.9 L 191.6 251.1 L 193.1 253.2 L 194.8 255.2 L 196.5 257.1 L 198.2 259.0 L 200.0 260.7 L 201.8 262.4 L 203.7 263.9 L 205.6 265.4 L 207.5 266.7 L 209.5 268.0 L 211.5 269.1 L 213.5 270.2 L 215.5 271.1 L 217.5 271.9 L 219.6 272.6 L 221.6 273.2 L 223.6 273.7 L 225.6 274.1 L 227.6 274.3 L 229.6 274.5 L 231.6 274.5 L 233.5 274.4 L 235.4 274.1 L 237.2 273.8 L 239.0 273.3 L 240.8 272.7 L 242.5 271.9 L 244.1 271.0 L 245.7 269.9 L 247.3 268.6 L 248.9 266.7 Z" fill="#ff0000"/>
  <path d="M 242.5 257.2 L 239.9 256.6 L 237.8 256.0 L 235.9 255.2 L 234.0 254.4 L 232.3 253.5 L 230.6 252.5 L 229.0 251.4 L 227.4 250.3 L 225.9 249.0 L 224.5 247.7 L 223.1 246.3 L 221.8 244.8 L 220.5 243.3 L 219.4 241.7 L 218.3 240.0 L 217.2 238.3 L 216.3 236.5 L 215.4 234.7 L 214.6 232.8 L 213.9 230.9 L 213.2 228.9 L 212.7 226.9 L 212.2 224.9 L 211.8 222.8 L 211.5 220.7 L 211.3 218.6 L 211.2 216.5 L 211.2 214.4 L 211.3 212.2 L 211.5 210.1 L 211.8 207.9 L 212.2 205.8 L 212.7 203.6 L 213.3 201.5 L 214.0 199.4 L 214.8 197.3 L 215.7 195.3 L 216.7 193.2 L 217.8 191.2 L 219.0 189.3 L 220.3 187.3 L 221.7 185.5 L 223.2 183.6 L 224.8 181.8 L 226.5 180.1 L 228.3 178.4 L 230.2 176.8 L 232.2 175.3 L 234.3 173.8 L 236.5 172.4 L 238.8 171.1 L 241.1 169.9 L 243.6 168.7 L 246.1 167.7 L 248.8 166.7 L 251.5 165.8 L 254.3 165.1 L 257.1 164.4 L 260.1 163.8 L 263.1 163.3 L 266.1 163.0 L 269.3 162.7 L 272.5 162.6 L 275.7 162.6 L 279.1 162.7 L 282.4 162.9 L 285.8 163.3 L 289.3 163.7 L 292.7 164.3 L 296.3 165.1 L 299.8 165.9 L 303.4 166.9 L 306.9 168.0 L 310.5 169.3 L 314.1 170.7 L 317.8 172.2 L 321.4 173.8 L 325.0 175.6 L 328.5 177.5 L 332.1 179.6 L 335.7 181.8 L 339.2 184.1 L 342.7 186.5 L 346.1 189.1 L 349.6 191.8 L 352.9 194.6 L 356.2 197.5 L 359.5 200.6 L 362.7 203.8 L 365.8 207.0 L 368.8 210.5 L 371.8 214.0 L 374.7 217.6 L 377.5 221.3 L 380.2 225.2 L 382.8 229.1 L 385.3 233.1 L 387.7 237.3 L 390.0 241.5 L 392.1 245.7 L 394.2 250.1 L 396.1 254.5 L 397.9 259.0 L 399.6 263.6 L 401.1 268.2 L 402.5 272.9 L 403.7 277.7 L 404.8 282.4 L 405.8 287.3 L 406.6 292.1 L 407.2 297.0 L 407.7 301.9 L 408.0 306.8 L 408.2 311.7 L 408.2 316.7 L 408.0 321.6 L 407.7 326.5 L 407.2 331.4 L 406.5 336.3 L 405.6 341.2 L 404.6 346.0 L 403.4 350.8 L 402.1 355.6 L 400.5 360.3 L 398.8 365.0 L 396.9 369.6 L 394.9 374.1 L 392.7 378.6 L 390.3 383.0 L 387.7 387.3 L 384.9 391.5 L 382.0 395.6 L 379.0 399.7 L 375.7 403.6 L 372.3 407.4 L 368.7 411.1 L 365.0 414.7 L 361.1 418.2 L 357.1 421.5 L 352.9 424.7 L 348.5 427.7 L 344.0 430.6 L 339.4 433.4 L 334.6 436.0 L 329.7 438.5 L 324.7 440.7 L 319.5 442.9 L 314.2 444.8 L 308.8 446.6 L 303.2 448.2 L 297.6 449.6 L 291.8 450.8 L 286.0 451.8 L 280.0 452.7 L 274.0 453.3 L 267.9 453.7 L 261.7 454.0 L 255.4 454.0 L 249.1 453.9 L 242.7 453.5 L 236.2 452.9 L 229.8 452.1 L 223.2 451.1 L 216.7 449.8 L 210.1 448.4 L 203.5 446.7 L 196.8 444.9 L 190.2 442.8 L 183.6 440.5 L 177.0 437.9 L 170.4 435.2 L 163.8 432.3 L 157.3 429.1 L 150.8 425.7 L 144.4 422.1 L 138.0 418.3 L 131.7 414.4 L 125.4 410.2 L 119.2 405.8 L 113.1 401.2 L 107.2 396.4 L 101.3 391.4 L 95.5 386.2 L 89.8 380.9 L 84.3 375.4 L 78.9 369.7 L 73.6 363.8 L 68.4 357.8 L 63.5 351.6 L 58.6 345.3 L 54.0 338.8 L 49.5 332.2 L 45.2 325.4 L 41.0 318.5 L 37.1 311.5 L 33.4 304.4 L 29.8 297.2 L 26.5 289.8 L 23.3 282.4 L 20.4 274.9 L 17.7 267.3 L 15.2 259.7 L 13.0 251.9 L 11.0 244.1 L 9.2 236.3 L 7.7 228.4 L 6.4 220.5 L 5.3 212.6 L 4.5 204.7 L 4.0 196.7 L 3.7 188.8 L 3.7 180.9 L 3.9 172.9 L 4.4 165.0 L 5.1 157.2 L 6.1 149.4 L 7.3 141.6 L 8.9 133.9 L 10.6 126.3 L 12.7 118.8 L 15.0 111.3 L 17.6 103.9 L 20.4 96.7 L 23.5 89.5 L 26.8 82.5 L 30.4 75.5 L 34.2 68.8 L 38.3 62.1 L 42.7 55.6 L 47.3 49.3 L 52.1 43.1 L 57.1 37.1 L 62.4 31.3 L 68.0 25.7 L 73.7 20.2 L 79.7 15.0 L 85.9 10.0 L 92.3 5.1 L 99.0 0.5 L 105.8 -3.9 L 112.8 -8.0 L 120.0 -11.9 L 127.5 -15.6 L 135.0 -19.0 L 142.8 -22.2 L 150.7 -25.1 L 158.8 -27.8 L 167.1 -30.2 L 175.5 -32.3 L 184.0 -34.1 L 192.7 -35.7 L 201.5 -37.0 L 210.4 -38.0 L 219.4 -38.7 L 228.5 -39.1 L 237.7 -39.2 L 247.0 -39.0 L 256.3 -38.5 L 265.7 -37.7 L 275.2 -36.7 L 284.7 -35.3 L 294.3 -33.6 L 303.8 -31.6 L 313.4 -29.3 L 323.0 -26.7 L 332.6 -23.7 L 342.1 -20.5 L 351.7 -17.0 L 361.2 -13.2 L 370.6 -9.1 L 380.0 -4.7 L 389.3 0.0 L 398.6 5.0 L 407.7 10.3 L 416.8 15.8 L 425.8 21.7 L 434.6 27.8 L 443.3 34.2 L 451.9 40.8 L 460.3 47.7 L 468.6 54.8 L 476.6 62.2 L 484.6 69.9 L 492.3 77.8 L 499.8 85.9 L 507.2 94.2 L 514.3 102.7 L 521.2 111.5 L 527.9 120.4 L 534.3 129.5 L 540.5 138.8 L 546.4 148.3 L 552.1 157.9 L 557.5 167.7 L 562.6 177.6 L 567.4 187.7 L 572.0 197.9 L 576.2 208.2 L 580.2 218.6 L 583.8 229.1 A 10.0 10.0 0 0 1 602.8 222.8 L 598.9 211.7 L 594.7 200.8 L 590.2 190.0 L 585.4 179.3 L 580.3 168.8 L 574.9 158.4 L 569.2 148.1 L 563.2 138.0 L 557.0 128.1 L 550.4 118.4 L 543.7 108.9 L 536.6 99.5 L 529.4 90.4 L 521.9 81.5 L 514.2 72.8 L 506.3 64.4 L 498.1 56.1 L 489.8 48.2 L 481.3 40.5 L 472.6 33.0 L 463.8 25.8 L 454.8 18.9 L 445.6 12.2 L 436.3 5.9 L 426.9 -0.2 L 417.4 -6.0 L 407.7 -11.5 L 398.0 -16.7 L 388.2 -21.6 L 378.3 -26.2 L 368.4 -30.5 L 358.3 -34.5 L 348.3 -38.1 L 338.2 -41.5 L 328.1 -44.5 L 318.0 -47.2 L 307.8 -49.6 L 297.7 -51.7 L 287.6 -53.4 L 277.5 -54.9 L 267.5 -56.0 L 257.5 -56.8 L 247.6 -57.2 L 237.7 -57.4 L 227.9 -57.2 L 218.2 -56.7 L 208.6 -55.9 L 199.1 -54.8 L 189.7 -53.4 L 180.5 -51.7 L 171.4 -49.7 L 162.4 -47.4 L 153.5 -44.8 L 144.9 -41.9 L 136.4 -38.7 L 128.0 -35.3 L 119.9 -31.5 L 111.9 -27.5 L 104.1 -23.3 L 96.6 -18.7 L 89.2 -14.0 L 82.1 -8.9 L 75.2 -3.7 L 68.5 1.8 L 62.1 7.5 L 55.9 13.4 L 49.9 19.5 L 44.2 25.9 L 38.8 32.4 L 33.6 39.1 L 28.7 46.0 L 24.0 53.0 L 19.6 60.2 L 15.5 67.5 L 11.7 75.0 L 8.1 82.6 L 4.9 90.4 L 1.9 98.2 L -0.8 106.1 L -3.3 114.2 L -5.4 122.3 L -7.3 130.5 L -8.9 138.8 L -10.2 147.1 L -11.2 155.4 L -11.9 163.8 L -12.4 172.3 L -12.6 180.7 L -12.5 189.2 L -12.1 197.6 L -11.5 206.1 L -10.6 214.5 L -9.4 222.9 L -8.0 231.3 L -6.4 239.6 L -4.4 247.9 L -2.2 256.2 L 0.2 264.3 L 2.8 272.4 L 5.7 280.4 L 8.9 288.3 L 12.2 296.2 L 15.8 303.9 L 19.6 311.5 L 23.6 318.9 L 27.8 326.3 L 32.1 333.5 L 36.7 340.6 L 41.5 347.6 L 46.4 354.4 L 51.6 361.0 L 56.8 367.5 L 62.3 373.8 L 67.9 379.9 L 73.6 385.9 L 79.5 391.6 L 85.5 397.2 L 91.6 402.6 L 97.8 407.8 L 104.2 412.8 L 110.6 417.6 L 117.1 422.2 L 123.7 426.6 L 130.4 430.8 L 137.2 434.7 L 144.0 438.4 L 150.9 442.0 L 157.8 445.3 L 164.8 448.3 L 171.8 451.2 L 178.8 453.8 L 185.8 456.2 L 192.9 458.4 L 199.9 460.3 L 206.9 462.0 L 213.9 463.5 L 220.9 464.7 L 227.9 465.8 L 234.8 466.6 L 241.7 467.2 L 248.6 467.5 L 255.3 467.6 L 262.1 467.5 L 268.7 467.2 L 275.3 466.7 L 281.8 466.0 L 288.1 465.0 L 294.4 463.8 L 300.6 462.5 L 306.7 460.9 L 312.7 459.1 L 318.5 457.1 L 324.3 455.0 L 329.9 452.6 L 335.3 450.1 L 340.6 447.4 L 345.8 444.5 L 350.8 441.5 L 355.7 438.2 L 360.4 434.9 L 365.0 431.3 L 369.3 427.6 L 373.5 423.8 L 377.6 419.9 L 381.4 415.8 L 385.1 411.6 L 388.6 407.2 L 391.9 402.8 L 395.1 398.3 L 398.0 393.6 L 400.8 388.9 L 403.3 384.1 L 405.7 379.2 L 407.9 374.2 L 409.9 369.2 L 411.7 364.1 L 413.3 359.0 L 414.7 353.8 L 415.9 348.6 L 417.0 343.3 L 417.8 338.0 L 418.5 332.7 L 419.0 327.4 L 419.3 322.1 L 419.4 316.8 L 419.4 311.5 L 419.1 306.2 L 418.7 300.9 L 418.1 295.7 L 417.4 290.4 L 416.5 285.3 L 415.4 280.1 L 414.2 275.0 L 412.8 270.0 L 411.2 265.0 L 409.6 260.1 L 407.7 255.2 L 405.8 250.5 L 403.7 245.8 L 401.4 241.2 L 399.1 236.6 L 396.6 232.2 L 394.0 227.8 L 391.3 223.6 L 388.4 219.5 L 385.5 215.4 L 382.5 211.5 L 379.4 207.7 L 376.2 204.0 L 372.9 200.4 L 369.5 197.0 L 366.1 193.6 L 362.6 190.4 L 359.0 187.4 L 355.4 184.4 L 351.7 181.6 L 348.0 179.0 L 344.3 176.4 L 340.5 174.0 L 336.7 171.8 L 332.8 169.6 L 329.0 167.7 L 325.1 165.8 L 321.2 164.1 L 317.3 162.6 L 313.4 161.2 L 309.6 159.9 L 305.7 158.7 L 301.8 157.8 L 298.0 156.9 L 294.2 156.2 L 290.4 155.6 L 286.7 155.2 L 283.0 154.9 L 279.4 154.7 L 275.8 154.7 L 272.2 154.8 L 268.7 155.0 L 265.3 155.3 L 262.0 155.8 L 258.7 156.4 L 255.5 157.1 L 252.3 157.9 L 249.3 158.9 L 246.3 159.9 L 243.4 161.1 L 240.6 162.3 L 237.9 163.7 L 235.3 165.1 L 232.9 166.7 L 230.5 168.3 L 228.2 170.0 L 226.0 171.8 L 223.9 173.7 L 222.0 175.6 L 220.1 177.6 L 218.4 179.6 L 216.8 181.8 L 215.3 183.9 L 213.9 186.1 L 212.6 188.4 L 211.5 190.7 L 210.5 193.0 L 209.5 195.3 L 208.8 197.7 L 208.1 200.1 L 207.5 202.4 L 207.1 204.8 L 206.7 207.2 L 206.5 209.6 L 206.4 212.0 L 206.4 214.4 L 206.5 216.7 L 206.8 219.1 L 207.1 221.4 L 207.5 223.6 L 208.0 225.9 L 208.7 228.0 L 209.4 230.2 L 210.2 232.3 L 211.1 234.3 L 212.1 236.3 L 213.1 238.2 L 214.3 240.1 L 215.5 241.9 L 216.8 243.6 L 218.2 245.2 L 219.6 246.8 L 221.2 248.3 L 222.7 249.6 L 224.4 250.9 L 226.1 252.1 L 227.8 253.2 L 229.6 254.2 L 231.5 255.1 L 233.4 255.8 L 235.5 256.4 L 237.6 256.9 L 239.8 257.2 L 242.5 257.2 Z" fill="#ffdd00"/>
  <path d="M 244.0 247.0 L 242.3 244.8 L 241.0 242.8 L 239.9 241.0 L 239.0 239.2 L 238.2 237.4 L 237.5 235.5 L 236.9 233.7 L 236.5 231.9 L 236.1 230.1 L 235.9 228.3 L 235.8 226.5 L 235.7 224.7 L 235.8 222.9 L 236.0 221.1 L 236.3 219.3 L 236.6 217.6 L 237.1 215.9 L 237.7 214.2 L 238.3 212.5 L 239.1 210.9 L 240.0 209.3 L 240.9 207.7 L 242.0 206.2 L 243.1 204.8 L 244.3 203.3 L 245.7 202.0 L 247.1 200.7 L 248.6 199.4 L 250.2 198.2 L 251.8 197.1 L 253.6 196.1 L 255.4 195.1 L 257.3 194.2 L 259.3 193.4 L 261.4 192.6 L 263.5 192.0 L 265.7 191.4 L 268.0 190.9 L 270.4 190.5 L 272.8 190.2 L 275.2 190.0 L 277.7 189.9 L 280.3 189.9 L 282.9 190.0 L 285.6 190.2 L 288.3 190.5 L 291.1 190.9 L 293.9 191.5 L 296.7 192.1 L 299.5 192.9 L 302.4 193.7 L 305.2 194.7 L 308.1 195.8 L 311.0 197.0 L 313.9 198.4 L 316.8 199.8 L 319.7 201.4 L 322.6 203.1 L 325.5 204.9 L 328.3 206.8 L 331.1 208.8 L 333.9 210.9 L 336.7 213.2 L 339.4 215.5 L 342.1 218.0 L 344.7 220.5 L 347.3 223.2 L 349.8 226.0 L 352.2 228.9 L 354.6 231.8 L 356.9 234.9 L 359.2 238.1 L 361.3 241.3 L 363.4 244.7 L 365.4 248.1 L 367.3 251.6 L 369.1 255.1 L 370.8 258.8 L 372.3 262.5 L 373.8 266.3 L 375.2 270.1 L 376.4 274.0 L 377.5 277.9 L 378.5 281.9 L 379.4 285.9 L 380.2 290.0 L 380.8 294.1 L 381.3 298.2 L 381.6 302.3 L 381.8 306.5 L 381.9 310.6 L 381.8 314.8 L 381.6 319.0 L 381.2 323.2 L 380.7 327.3 L 380.0 331.5 L 379.2 335.6 L 378.3 339.7 L 377.1 343.8 L 375.9 347.8 L 374.5 351.8 L 372.9 355.8 L 371.2 359.7 L 369.3 363.5 L 367.2 367.3 L 365.1 371.0 L 362.7 374.7 L 360.2 378.2 L 357.6 381.7 L 354.8 385.1 L 351.9 388.4 L 348.8 391.6 L 345.6 394.7 L 342.3 397.7 L 338.8 400.6 L 335.1 403.4 L 331.4 406.0 L 327.5 408.5 L 323.4 410.9 L 319.3 413.2 L 315.0 415.3 L 310.6 417.3 L 306.1 419.1 L 301.4 420.8 L 296.7 422.4 L 291.8 423.7 L 286.9 425.0 L 281.9 426.0 L 276.7 426.9 L 271.5 427.6 L 266.2 428.1 L 260.8 428.5 L 255.3 428.7 L 249.8 428.7 L 244.2 428.5 L 238.6 428.1 L 232.9 427.5 L 227.1 426.8 L 221.4 425.9 L 215.6 424.7 L 209.7 423.4 L 203.9 421.9 L 198.0 420.2 L 192.2 418.3 L 186.3 416.2 L 180.4 413.9 L 174.6 411.4 L 168.8 408.7 L 163.0 405.8 L 157.2 402.8 L 151.5 399.5 L 145.8 396.1 L 140.2 392.5 L 134.7 388.6 L 129.2 384.7 L 123.8 380.5 L 118.5 376.2 L 113.2 371.6 L 108.1 367.0 L 103.1 362.1 L 98.2 357.1 L 93.4 351.9 L 88.7 346.6 L 84.1 341.2 L 79.7 335.6 L 75.5 329.8 L 71.4 323.9 L 67.4 317.9 L 63.6 311.8 L 59.9 305.6 L 56.5 299.2 L 53.2 292.8 L 50.1 286.2 L 47.2 279.6 L 44.4 272.8 L 41.9 266.0 L 39.6 259.1 L 37.4 252.2 L 35.5 245.2 L 33.8 238.1 L 32.3 231.0 L 31.0 223.9 L 30.0 216.7 L 29.1 209.5 L 28.5 202.3 L 28.2 195.1 L 28.0 187.9 L 28.1 180.8 L 28.4 173.6 L 29.0 166.4 L 29.8 159.3 L 30.8 152.3 L 32.1 145.2 L 33.6 138.3 L 35.4 131.4 L 37.4 124.6 L 39.6 117.8 L 42.1 111.1 L 44.8 104.6 L 47.8 98.1 L 50.9 91.8 L 54.3 85.5 L 58.0 79.4 L 61.9 73.5 L 66.0 67.6 L 70.3 61.9 L 74.8 56.4 L 79.6 51.0 L 84.6 45.8 L 89.8 40.7 L 95.2 35.9 L 100.8 31.2 L 106.6 26.7 L 112.6 22.4 L 118.7 18.3 L 125.1 14.4 L 131.7 10.8 L 138.4 7.3 L 145.3 4.1 L 152.4 1.1 L 159.6 -1.7 L 167.0 -4.2 L 174.5 -6.5 L 182.2 -8.5 L 190.0 -10.3 L 198.0 -11.8 L 206.0 -13.1 L 214.2 -14.1 L 222.4 -14.8 L 230.8 -15.3 L 239.2 -15.4 L 247.8 -15.4 L 256.4 -15.0 L 265.0 -14.4 L 273.8 -13.5 L 282.5 -12.3 L 291.3 -10.8 L 300.1 -9.0 L 309.0 -7.0 L 317.8 -4.6 L 326.7 -2.0 L 335.5 0.9 L 344.4 4.0 L 353.2 7.5 L 361.9 11.2 L 370.6 15.2 L 379.3 19.5 L 387.9 24.0 L 396.4 28.8 L 404.8 33.9 L 413.1 39.2 L 421.3 44.8 L 429.4 50.7 L 437.4 56.8 L 445.3 63.1 L 453.0 69.7 L 460.5 76.5 L 467.9 83.5 L 475.2 90.8 L 482.2 98.3 L 489.1 105.9 L 495.7 113.8 L 502.2 121.9 L 508.5 130.2 L 514.5 138.6 L 520.3 147.2 L 525.9 156.0 L 531.2 164.9 L 536.3 174.0 L 541.1 183.2 L 545.7 192.6 L 550.0 202.0 L 554.0 211.6 L 557.8 221.3 L 561.3 231.0 L 564.4 240.9 L 567.3 250.8 L 569.9 260.8 L 572.2 270.8 L 574.2 280.9 L 575.8 291.0 L 577.2 301.1 L 578.2 311.3 L 578.9 321.4 L 579.3 331.6 L 579.4 341.7 L 579.2 351.7 L 578.6 361.8 L 577.7 371.8 L 576.4 381.7 L 574.9 391.5 L 573.0 401.3 L 570.8 411.0 L 568.2 420.5 L 565.4 430.0 L 562.2 439.3 L 558.7 448.5 L 554.8 457.6 L 550.7 466.5 L 546.2 475.2 A 10.0 10.0 0 0 1 563.8 484.6 L 568.6 475.2 L 573.0 465.6 L 577.1 455.9 L 580.8 446.0 L 584.2 436.0 L 587.2 425.9 L 589.9 415.7 L 592.3 405.3 L 594.2 394.9 L 595.9 384.4 L 597.1 373.8 L 598.0 363.2 L 598.6 352.5 L 598.9 341.8 L 598.7 331.1 L 598.3 320.3 L 597.5 309.6 L 596.3 298.9 L 594.9 288.1 L 593.1 277.5 L 590.9 266.8 L 588.5 256.2 L 585.7 245.7 L 582.6 235.3 L 579.2 224.9 L 575.5 214.6 L 571.6 204.5 L 567.3 194.4 L 562.7 184.5 L 557.9 174.7 L 552.8 165.0 L 547.4 155.5 L 541.7 146.2 L 535.9 137.0 L 529.7 128.0 L 523.4 119.2 L 516.8 110.5 L 510.0 102.1 L 502.9 93.8 L 495.7 85.8 L 488.3 78.0 L 480.7 70.4 L 472.9 63.1 L 464.9 56.0 L 456.8 49.1 L 448.6 42.5 L 440.2 36.2 L 431.6 30.1 L 423.0 24.2 L 414.2 18.7 L 405.4 13.4 L 396.4 8.4 L 387.3 3.6 L 378.2 -0.8 L 369.0 -5.0 L 359.8 -8.9 L 350.5 -12.5 L 341.2 -15.8 L 331.9 -18.8 L 322.5 -21.5 L 313.1 -23.9 L 303.8 -26.0 L 294.4 -27.9 L 285.1 -29.4 L 275.8 -30.6 L 266.5 -31.5 L 257.3 -32.2 L 248.2 -32.5 L 239.1 -32.5 L 230.1 -32.3 L 221.2 -31.8 L 212.3 -30.9 L 203.6 -29.8 L 195.0 -28.4 L 186.5 -26.7 L 178.2 -24.8 L 169.9 -22.6 L 161.9 -20.1 L 153.9 -17.3 L 146.2 -14.3 L 138.5 -11.0 L 131.1 -7.5 L 123.9 -3.7 L 116.8 0.3 L 109.9 4.5 L 103.3 9.0 L 96.8 13.7 L 90.5 18.6 L 84.5 23.7 L 78.7 29.0 L 73.1 34.5 L 67.7 40.2 L 62.6 46.0 L 57.7 52.1 L 53.1 58.3 L 48.7 64.6 L 44.5 71.1 L 40.6 77.8 L 37.0 84.5 L 33.6 91.4 L 30.4 98.4 L 27.6 105.5 L 24.9 112.7 L 22.6 120.0 L 20.5 127.4 L 18.6 134.8 L 17.1 142.3 L 15.7 149.8 L 14.7 157.4 L 13.9 165.0 L 13.3 172.7 L 13.0 180.4 L 13.0 188.0 L 13.2 195.7 L 13.6 203.4 L 14.3 211.1 L 15.2 218.7 L 16.4 226.3 L 17.8 233.9 L 19.4 241.4 L 21.3 248.9 L 23.4 256.3 L 25.7 263.7 L 28.2 270.9 L 31.0 278.1 L 33.9 285.2 L 37.0 292.2 L 40.4 299.1 L 43.9 305.9 L 47.6 312.6 L 51.5 319.2 L 55.5 325.6 L 59.7 331.9 L 64.1 338.1 L 68.7 344.1 L 73.4 350.0 L 78.2 355.7 L 83.2 361.3 L 88.2 366.7 L 93.5 371.9 L 98.8 377.0 L 104.2 381.9 L 109.8 386.6 L 115.4 391.1 L 121.2 395.5 L 127.0 399.6 L 132.9 403.6 L 138.8 407.4 L 144.8 411.0 L 150.9 414.4 L 157.0 417.5 L 163.2 420.5 L 169.4 423.3 L 175.6 425.9 L 181.8 428.3 L 188.0 430.5 L 194.3 432.4 L 200.5 434.2 L 206.8 435.8 L 213.0 437.1 L 219.2 438.3 L 225.4 439.2 L 231.5 440.0 L 237.6 440.5 L 243.7 440.8 L 249.7 441.0 L 255.6 440.9 L 261.5 440.7 L 267.3 440.2 L 273.0 439.6 L 278.6 438.8 L 284.1 437.8 L 289.6 436.6 L 294.9 435.2 L 300.2 433.7 L 305.3 431.9 L 310.3 430.1 L 315.2 428.0 L 320.0 425.8 L 324.7 423.4 L 329.2 420.9 L 333.5 418.2 L 337.8 415.4 L 341.9 412.5 L 345.8 409.4 L 349.6 406.2 L 353.2 402.8 L 356.7 399.4 L 360.1 395.8 L 363.2 392.1 L 366.2 388.4 L 369.1 384.5 L 371.7 380.6 L 374.2 376.6 L 376.6 372.5 L 378.7 368.3 L 380.7 364.1 L 382.6 359.8 L 384.2 355.4 L 385.7 351.0 L 387.0 346.6 L 388.2 342.2 L 389.2 337.7 L 390.0 333.2 L 390.6 328.7 L 391.1 324.1 L 391.5 319.6 L 391.6 315.1 L 391.7 310.6 L 391.5 306.1 L 391.2 301.6 L 390.8 297.2 L 390.2 292.7 L 389.5 288.3 L 388.6 284.0 L 387.6 279.7 L 386.5 275.4 L 385.2 271.2 L 383.8 267.1 L 382.3 263.0 L 380.6 259.0 L 378.9 255.1 L 377.0 251.2 L 375.0 247.4 L 372.9 243.7 L 370.8 240.1 L 368.5 236.6 L 366.1 233.2 L 363.7 229.9 L 361.2 226.7 L 358.6 223.5 L 355.9 220.5 L 353.2 217.6 L 350.4 214.8 L 347.5 212.1 L 344.6 209.6 L 341.7 207.1 L 338.7 204.8 L 335.6 202.6 L 332.6 200.5 L 329.5 198.5 L 326.4 196.6 L 323.3 194.9 L 320.1 193.3 L 317.0 191.8 L 313.8 190.5 L 310.7 189.2 L 307.5 188.1 L 304.4 187.1 L 301.3 186.3 L 298.2 185.5 L 295.1 184.9 L 292.1 184.4 L 289.1 184.1 L 286.1 183.8 L 283.2 183.7 L 280.3 183.7 L 277.5 183.7 L 274.7 184.0 L 272.0 184.3 L 269.4 184.7 L 266.8 185.2 L 264.3 185.9 L 261.9 186.6 L 259.5 187.4 L 257.2 188.4 L 255.1 189.4 L 253.0 190.5 L 250.9 191.7 L 249.0 193.0 L 247.2 194.3 L 245.5 195.7 L 243.9 197.2 L 242.4 198.8 L 240.9 200.4 L 239.6 202.1 L 238.4 203.8 L 237.4 205.6 L 236.4 207.4 L 235.5 209.2 L 234.8 211.1 L 234.2 213.0 L 233.7 214.9 L 233.3 216.9 L 233.0 218.8 L 232.8 220.8 L 232.8 222.8 L 232.8 224.7 L 233.0 226.7 L 233.3 228.6 L 233.7 230.6 L 234.3 232.5 L 234.9 234.4 L 235.7 236.2 L 236.6 238.1 L 237.7 239.9 L 238.8 241.7 L 240.2 243.4 L 241.8 245.2 L 244.0 247.0 Z" fill="#880000"/>
  <path d="M 252.6 242.1 L 252.8 239.5 L 253.1 237.4 L 253.5 235.5 L 254.0 233.8 L 254.6 232.1 L 255.3 230.6 L 256.1 229.1 L 257.0 227.7 L 258.0 226.4 L 259.1 225.2 L 260.3 224.1 L 261.5 223.0 L 262.8 222.0 L 264.2 221.1 L 265.7 220.3 L 267.2 219.5 L 268.8 218.8 L 270.5 218.3 L 272.2 217.8 L 274.0 217.3 L 275.9 217.0 L 277.8 216.8 L 279.7 216.6 L 281.7 216.6 L 283.8 216.7 L 285.8 216.8 L 288.0 217.0 L 290.1 217.4 L 292.3 217.8 L 294.5 218.4 L 296.7 219.0 L 299.0 219.8 L 301.2 220.6 L 303.5 221.6 L 305.8 222.7 L 308.0 223.8 L 310.3 225.1 L 312.6 226.5 L 314.8 227.9 L 317.0 229.5 L 319.2 231.2 L 321.4 232.9 L 323.6 234.8 L 325.7 236.8 L 327.7 238.8 L 329.8 241.0 L 331.7 243.2 L 333.7 245.6 L 335.5 248.0 L 337.3 250.5 L 339.1 253.1 L 340.7 255.7 L 342.3 258.5 L 343.9 261.3 L 345.3 264.2 L 346.6 267.1 L 347.9 270.1 L 349.1 273.2 L 350.2 276.3 L 351.1 279.4 L 352.0 282.7 L 352.8 285.9 L 353.4 289.2 L 354.0 292.5 L 354.4 295.9 L 354.7 299.3 L 354.9 302.7 L 355.0 306.1 L 355.0 309.5 L 354.8 313.0 L 354.5 316.4 L 354.1 319.8 L 353.6 323.3 L 352.9 326.7 L 352.1 330.1 L 351.2 333.4 L 350.1 336.8 L 348.9 340.1 L 347.6 343.4 L 346.1 346.6 L 344.5 349.8 L 342.8 353.0 L 340.9 356.1 L 338.9 359.1 L 336.8 362.1 L 334.5 365.0 L 332.1 367.8 L 329.6 370.5 L 327.0 373.2 L 324.2 375.8 L 321.3 378.3 L 318.3 380.7 L 315.1 382.9 L 311.9 385.1 L 308.5 387.2 L 305.0 389.2 L 301.4 391.0 L 297.7 392.7 L 293.9 394.4 L 289.9 395.8 L 285.9 397.2 L 281.8 398.4 L 277.6 399.5 L 273.3 400.4 L 268.9 401.2 L 264.4 401.8 L 259.8 402.3 L 255.2 402.6 L 250.5 402.8 L 245.8 402.8 L 240.9 402.7 L 236.1 402.4 L 231.2 401.9 L 226.2 401.2 L 221.2 400.4 L 216.2 399.5 L 211.1 398.3 L 206.0 397.0 L 200.9 395.5 L 195.8 393.8 L 190.7 392.0 L 185.6 390.0 L 180.5 387.8 L 175.4 385.4 L 170.4 382.9 L 165.3 380.2 L 160.3 377.4 L 155.4 374.3 L 150.5 371.1 L 145.6 367.8 L 140.8 364.2 L 136.1 360.6 L 131.4 356.7 L 126.8 352.7 L 122.3 348.6 L 117.9 344.3 L 113.6 339.8 L 109.4 335.2 L 105.3 330.5 L 101.3 325.6 L 97.4 320.7 L 93.7 315.5 L 90.1 310.3 L 86.6 305.0 L 83.3 299.5 L 80.1 293.9 L 77.1 288.2 L 74.2 282.5 L 71.5 276.6 L 68.9 270.7 L 66.6 264.7 L 64.4 258.6 L 62.3 252.4 L 60.5 246.2 L 58.9 239.9 L 57.4 233.6 L 56.2 227.3 L 55.1 220.9 L 54.2 214.5 L 53.6 208.1 L 53.1 201.6 L 52.9 195.2 L 52.8 188.7 L 53.0 182.3 L 53.4 175.9 L 54.0 169.5 L 54.8 163.1 L 55.8 156.8 L 57.1 150.5 L 58.5 144.2 L 60.2 138.1 L 62.1 131.9 L 64.2 125.9 L 66.5 120.0 L 69.1 114.1 L 71.8 108.3 L 74.8 102.6 L 78.0 97.1 L 81.4 91.6 L 85.0 86.3 L 88.8 81.0 L 92.8 76.0 L 97.0 71.0 L 101.4 66.2 L 106.1 61.6 L 110.9 57.1 L 115.9 52.8 L 121.0 48.6 L 126.4 44.7 L 131.9 40.9 L 137.6 37.3 L 143.5 33.8 L 149.6 30.6 L 155.8 27.6 L 162.2 24.8 L 168.7 22.2 L 175.3 19.8 L 182.1 17.6 L 189.1 15.7 L 196.1 14.0 L 203.3 12.5 L 210.6 11.2 L 218.0 10.2 L 225.5 9.5 L 233.1 8.9 L 240.8 8.7 L 248.6 8.7 L 256.4 8.9 L 264.3 9.4 L 272.3 10.1 L 280.3 11.1 L 288.3 12.4 L 296.4 13.9 L 304.5 15.7 L 312.6 17.7 L 320.7 20.0 L 328.9 22.6 L 337.0 25.4 L 345.0 28.5 L 353.1 31.8 L 361.1 35.4 L 369.1 39.2 L 377.0 43.3 L 384.8 47.7 L 392.6 52.2 L 400.3 57.1 L 407.9 62.2 L 415.4 67.5 L 422.8 73.0 L 430.0 78.8 L 437.2 84.8 L 444.2 91.0 L 451.1 97.4 L 457.8 104.0 L 464.3 110.9 L 470.7 117.9 L 476.9 125.1 L 483.0 132.5 L 488.8 140.1 L 494.4 147.8 L 499.9 155.7 L 505.1 163.8 L 510.1 172.0 L 514.9 180.4 L 519.4 188.9 L 523.7 197.5 L 527.7 206.2 L 531.6 215.1 L 535.1 224.0 L 538.4 233.0 L 541.4 242.1 L 544.2 251.3 L 546.6 260.6 L 548.8 269.9 L 550.7 279.2 L 552.4 288.6 L 553.7 298.0 L 554.7 307.4 L 555.5 316.8 L 555.9 326.2 L 556.1 335.6 L 555.9 345.0 L 555.4 354.3 L 554.7 363.6 L 553.6 372.9 L 552.2 382.0 L 550.5 391.1 L 548.5 400.2 L 546.2 409.1 L 543.6 417.9 L 540.7 426.6 L 537.5 435.2 L 534.0 443.7 L 530.2 452.0 L 526.1 460.2 L 521.7 468.2 L 517.1 476.1 L 512.1 483.7 L 506.8 491.2 L 501.3 498.5 L 495.5 505.6 L 489.4 512.5 L 483.1 519.2 L 476.5 525.7 L 469.6 531.9 L 462.5 537.9 L 455.1 543.6 L 447.5 549.1 L 439.6 554.3 L 431.5 559.3 L 423.2 564.0 L 414.7 568.4 L 406.0 572.5 L 397.1 576.3 L 388.0 579.9 L 378.7 583.1 L 369.2 586.0 L 359.5 588.6 L 349.7 590.9 L 339.8 592.9 A 10.0 10.0 0 0 1 343.3 612.5 L 354.0 610.4 L 364.4 607.9 L 374.7 605.1 L 384.9 601.9 L 394.8 598.4 L 404.6 594.6 L 414.1 590.5 L 423.5 586.0 L 432.6 581.2 L 441.5 576.1 L 450.2 570.8 L 458.6 565.1 L 466.8 559.2 L 474.7 552.9 L 482.4 546.5 L 489.7 539.7 L 496.8 532.7 L 503.7 525.5 L 510.2 518.0 L 516.4 510.4 L 522.3 502.5 L 528.0 494.4 L 533.3 486.1 L 538.3 477.6 L 543.0 469.0 L 547.3 460.1 L 551.4 451.2 L 555.1 442.1 L 558.5 432.8 L 561.6 423.5 L 564.3 414.0 L 566.7 404.5 L 568.8 394.8 L 570.6 385.1 L 572.0 375.3 L 573.1 365.4 L 573.9 355.5 L 574.3 345.5 L 574.4 335.6 L 574.3 325.6 L 573.7 315.6 L 572.9 305.6 L 571.8 295.6 L 570.3 285.7 L 568.5 275.8 L 566.5 265.9 L 564.1 256.1 L 561.5 246.4 L 558.5 236.7 L 555.3 227.1 L 551.8 217.6 L 548.0 208.2 L 544.0 198.9 L 539.7 189.8 L 535.1 180.7 L 530.3 171.8 L 525.2 163.0 L 520.0 154.4 L 514.4 146.0 L 508.7 137.7 L 502.7 129.6 L 496.6 121.7 L 490.2 113.9 L 483.7 106.4 L 476.9 99.0 L 470.0 91.9 L 462.9 85.0 L 455.7 78.3 L 448.3 71.8 L 440.8 65.5 L 433.1 59.5 L 425.3 53.7 L 417.4 48.2 L 409.4 42.9 L 401.3 37.9 L 393.1 33.1 L 384.9 28.5 L 376.5 24.3 L 368.1 20.3 L 359.6 16.5 L 351.1 13.1 L 342.6 9.9 L 334.0 6.9 L 325.4 4.3 L 316.8 1.9 L 308.2 -0.2 L 299.6 -2.1 L 291.0 -3.6 L 282.5 -4.9 L 274.0 -5.9 L 265.5 -6.7 L 257.1 -7.2 L 248.8 -7.4 L 240.5 -7.3 L 232.3 -6.9 L 224.1 -6.3 L 216.1 -5.5 L 208.2 -4.3 L 200.4 -3.0 L 192.7 -1.3 L 185.1 0.6 L 177.6 2.7 L 170.3 5.1 L 163.1 7.7 L 156.1 10.6 L 149.3 13.7 L 142.6 17.0 L 136.0 20.5 L 129.7 24.2 L 123.5 28.2 L 117.5 32.4 L 111.8 36.7 L 106.2 41.3 L 100.8 46.0 L 95.6 50.9 L 90.6 56.0 L 85.9 61.2 L 81.3 66.6 L 77.0 72.2 L 72.9 77.8 L 69.1 83.7 L 65.4 89.6 L 62.0 95.7 L 58.8 101.9 L 55.9 108.1 L 53.2 114.5 L 50.7 121.0 L 48.5 127.5 L 46.5 134.1 L 44.7 140.8 L 43.2 147.5 L 41.9 154.3 L 40.8 161.1 L 40.0 168.0 L 39.4 174.8 L 39.1 181.7 L 38.9 188.6 L 39.0 195.5 L 39.4 202.4 L 39.9 209.3 L 40.7 216.2 L 41.6 223.0 L 42.8 229.8 L 44.2 236.5 L 45.8 243.2 L 47.6 249.9 L 49.6 256.5 L 51.8 263.0 L 54.2 269.4 L 56.8 275.8 L 59.5 282.0 L 62.4 288.2 L 65.5 294.3 L 68.8 300.2 L 72.2 306.1 L 75.7 311.9 L 79.5 317.5 L 83.3 323.0 L 87.3 328.3 L 91.4 333.6 L 95.7 338.7 L 100.1 343.6 L 104.5 348.4 L 109.1 353.1 L 113.8 357.6 L 118.6 361.9 L 123.5 366.1 L 128.5 370.1 L 133.5 374.0 L 138.6 377.7 L 143.8 381.2 L 149.0 384.5 L 154.3 387.7 L 159.6 390.6 L 165.0 393.5 L 170.4 396.1 L 175.8 398.5 L 181.2 400.8 L 186.7 402.9 L 192.1 404.8 L 197.6 406.5 L 203.0 408.0 L 208.5 409.4 L 213.9 410.5 L 219.3 411.5 L 224.6 412.3 L 230.0 412.9 L 235.3 413.4 L 240.5 413.7 L 245.7 413.8 L 250.8 413.7 L 255.9 413.4 L 260.9 413.0 L 265.8 412.4 L 270.6 411.7 L 275.4 410.8 L 280.0 409.7 L 284.6 408.5 L 289.1 407.1 L 293.5 405.6 L 297.7 403.9 L 301.9 402.1 L 305.9 400.1 L 309.9 398.0 L 313.7 395.8 L 317.3 393.5 L 320.9 391.0 L 324.3 388.4 L 327.6 385.8 L 330.7 383.0 L 333.7 380.1 L 336.6 377.1 L 339.3 374.0 L 341.9 370.9 L 344.3 367.6 L 346.6 364.3 L 348.8 360.9 L 350.8 357.5 L 352.6 354.0 L 354.3 350.5 L 355.8 346.9 L 357.2 343.2 L 358.5 339.6 L 359.6 335.9 L 360.5 332.1 L 361.3 328.4 L 362.0 324.7 L 362.5 320.9 L 362.9 317.2 L 363.2 313.4 L 363.3 309.7 L 363.2 305.9 L 363.1 302.2 L 362.8 298.6 L 362.3 294.9 L 361.8 291.3 L 361.1 287.7 L 360.3 284.2 L 359.4 280.7 L 358.4 277.2 L 357.3 273.9 L 356.1 270.5 L 354.7 267.3 L 353.3 264.1 L 351.8 260.9 L 350.2 257.9 L 348.5 254.9 L 346.7 252.0 L 344.8 249.2 L 342.9 246.5 L 340.9 243.9 L 338.8 241.3 L 336.7 238.9 L 334.5 236.6 L 332.3 234.3 L 330.0 232.2 L 327.7 230.1 L 325.3 228.2 L 322.9 226.4 L 320.5 224.6 L 318.0 223.0 L 315.6 221.5 L 313.1 220.1 L 310.6 218.8 L 308.1 217.7 L 305.6 216.6 L 303.1 215.7 L 300.6 214.8 L 298.1 214.1 L 295.7 213.5 L 293.3 213.0 L 290.9 212.6 L 288.5 212.4 L 286.1 212.2 L 283.8 212.1 L 281.6 212.2 L 279.4 212.4 L 277.2 212.7 L 275.1 213.0 L 273.1 213.5 L 271.1 214.1 L 269.3 214.8 L 267.4 215.6 L 265.7 216.4 L 264.0 217.4 L 262.5 218.5 L 261.0 219.6 L 259.6 220.8 L 258.3 222.1 L 257.1 223.5 L 256.1 225.0 L 255.1 226.5 L 254.3 228.1 L 253.6 229.8 L 253.0 231.6 L 252.5 233.4 L 252.2 235.3 L 252.1 237.3 L 252.1 239.5 L 252.6 242.1 Z" fill="#ffcc00"/>
  <path d="M 263.1 245.3 L 265.1 243.9 L 266.8 242.9 L 268.4 242.1 L 270.1 241.5 L 271.8 240.9 L 273.4 240.5 L 275.2 240.3 L 276.9 240.1 L 278.6 240.1 L 280.4 240.1 L 282.2 240.3 L 284.0 240.5 L 285.8 240.9 L 287.6 241.4 L 289.4 241.9 L 291.3 242.6 L 293.1 243.4 L 294.9 244.3 L 296.7 245.2 L 298.5 246.3 L 300.3 247.4 L 302.1 248.7 L 303.8 250.0 L 305.5 251.5 L 307.2 253.0 L 308.8 254.6 L 310.4 256.3 L 311.9 258.0 L 313.4 259.9 L 314.8 261.8 L 316.2 263.8 L 317.5 265.9 L 318.8 268.0 L 320.0 270.2 L 321.1 272.5 L 322.1 274.8 L 323.1 277.2 L 324.0 279.6 L 324.8 282.1 L 325.5 284.6 L 326.1 287.2 L 326.6 289.8 L 327.0 292.4 L 327.4 295.1 L 327.6 297.8 L 327.7 300.5 L 327.7 303.2 L 327.7 306.0 L 327.5 308.7 L 327.2 311.4 L 326.8 314.2 L 326.2 316.9 L 325.6 319.6 L 324.8 322.4 L 324.0 325.0 L 323.0 327.7 L 321.9 330.4 L 320.7 333.0 L 319.4 335.5 L 317.9 338.1 L 316.4 340.6 L 314.7 343.0 L 312.9 345.4 L 311.0 347.7 L 309.0 350.0 L 306.9 352.2 L 304.7 354.3 L 302.3 356.4 L 299.9 358.3 L 297.3 360.2 L 294.6 362.0 L 291.8 363.8 L 289.0 365.4 L 286.0 366.9 L 282.9 368.3 L 279.7 369.7 L 276.5 370.9 L 273.1 372.0 L 269.7 373.0 L 266.1 373.8 L 262.5 374.6 L 258.8 375.2 L 255.1 375.7 L 251.2 376.1 L 247.3 376.3 L 243.4 376.4 L 239.3 376.3 L 235.3 376.2 L 231.1 375.8 L 227.0 375.4 L 222.8 374.8 L 218.5 374.0 L 214.2 373.1 L 209.9 372.0 L 205.6 370.8 L 201.3 369.5 L 196.9 367.9 L 192.6 366.3 L 188.2 364.5 L 183.9 362.5 L 179.5 360.4 L 175.2 358.1 L 170.9 355.7 L 166.7 353.1 L 162.5 350.4 L 158.3 347.5 L 154.1 344.5 L 150.0 341.4 L 146.0 338.1 L 142.1 334.6 L 138.2 331.1 L 134.4 327.4 L 130.6 323.5 L 127.0 319.5 L 123.4 315.5 L 119.9 311.2 L 116.6 306.9 L 113.3 302.5 L 110.2 297.9 L 107.2 293.3 L 104.3 288.5 L 101.5 283.6 L 98.9 278.7 L 96.4 273.6 L 94.0 268.5 L 91.8 263.3 L 89.8 258.0 L 87.9 252.7 L 86.1 247.3 L 84.5 241.8 L 83.1 236.3 L 81.9 230.8 L 80.8 225.2 L 79.9 219.5 L 79.2 213.9 L 78.6 208.2 L 78.2 202.5 L 78.1 196.9 L 78.1 191.2 L 78.3 185.5 L 78.7 179.8 L 79.2 174.1 L 80.0 168.5 L 81.0 162.9 L 82.1 157.4 L 83.5 151.8 L 85.0 146.4 L 86.8 141.0 L 88.7 135.6 L 90.9 130.4 L 93.2 125.2 L 95.7 120.1 L 98.4 115.0 L 101.3 110.1 L 104.4 105.3 L 107.7 100.5 L 111.2 95.9 L 114.8 91.5 L 118.7 87.1 L 122.7 82.9 L 126.9 78.8 L 131.2 74.8 L 135.8 71.0 L 140.5 67.3 L 145.4 63.8 L 150.4 60.5 L 155.6 57.3 L 161.0 54.4 L 166.5 51.5 L 172.1 48.9 L 177.9 46.5 L 183.8 44.2 L 189.9 42.2 L 196.1 40.3 L 202.4 38.6 L 208.8 37.2 L 215.3 36.0 L 222.0 35.0 L 228.7 34.2 L 235.5 33.6 L 242.4 33.2 L 249.4 33.1 L 256.5 33.2 L 263.6 33.5 L 270.8 34.1 L 278.0 34.9 L 285.3 35.9 L 292.6 37.2 L 300.0 38.7 L 307.3 40.4 L 314.7 42.4 L 322.1 44.6 L 329.4 47.1 L 336.8 49.8 L 344.1 52.7 L 351.4 55.9 L 358.7 59.3 L 365.9 62.9 L 373.1 66.8 L 380.2 70.9 L 387.3 75.2 L 394.2 79.7 L 401.1 84.5 L 407.9 89.5 L 414.6 94.7 L 421.2 100.1 L 427.6 105.7 L 433.9 111.5 L 440.1 117.4 L 446.2 123.6 L 452.1 130.0 L 457.8 136.5 L 463.4 143.3 L 468.8 150.1 L 474.1 157.2 L 479.1 164.4 L 484.0 171.8 L 488.6 179.2 L 493.1 186.9 L 497.3 194.6 L 501.4 202.5 L 505.2 210.5 L 508.7 218.6 L 512.1 226.8 L 515.2 235.0 L 518.0 243.4 L 520.6 251.8 L 523.0 260.3 L 525.1 268.9 L 526.9 277.5 L 528.5 286.1 L 529.8 294.7 L 530.9 303.4 L 531.6 312.1 L 532.1 320.8 L 532.4 329.5 L 532.3 338.1 L 532.0 346.7 L 531.3 355.3 L 530.4 363.9 L 529.2 372.4 L 527.8 380.8 L 526.0 389.2 L 524.0 397.5 L 521.6 405.7 L 519.0 413.8 L 516.2 421.7 L 513.0 429.6 L 509.5 437.4 L 505.8 445.0 L 501.8 452.4 L 497.6 459.8 L 493.0 466.9 L 488.2 473.9 L 483.2 480.7 L 477.8 487.4 L 472.3 493.8 L 466.4 500.1 L 460.4 506.1 L 454.0 512.0 L 447.5 517.6 L 440.7 523.0 L 433.7 528.1 L 426.4 533.0 L 419.0 537.7 L 411.3 542.1 L 403.4 546.3 L 395.4 550.2 L 387.1 553.8 L 378.6 557.2 L 370.0 560.3 L 361.2 563.0 L 352.3 565.5 L 343.2 567.8 L 333.9 569.7 L 324.5 571.3 L 315.0 572.6 L 305.4 573.5 L 295.6 574.2 L 285.8 574.6 L 275.8 574.6 L 265.8 574.3 L 255.7 573.7 L 245.6 572.8 L 235.4 571.5 L 225.1 570.0 L 214.8 568.1 L 204.5 565.8 L 194.2 563.3 L 183.9 560.4 L 173.6 557.2 L 163.4 553.6 L 153.1 549.8 L 142.9 545.6 L 132.8 541.1 L 122.7 536.3 L 112.7 531.2 L 102.8 525.8 L 93.0 520.0 L 83.3 514.0 A 10.0 10.0 0 0 1 72.6 530.9 L 82.8 537.1 L 93.1 543.1 L 103.5 548.8 L 114.0 554.1 L 124.6 559.1 L 135.2 563.8 L 146.0 568.1 L 156.7 572.2 L 167.6 575.8 L 178.4 579.2 L 189.3 582.2 L 200.2 584.8 L 211.0 587.2 L 221.9 589.1 L 232.7 590.8 L 243.5 592.0 L 254.3 593.0 L 265.0 593.6 L 275.6 593.8 L 286.2 593.8 L 296.7 593.3 L 307.0 592.6 L 317.3 591.5 L 327.4 590.1 L 337.5 588.3 L 347.3 586.2 L 357.1 583.8 L 366.7 581.1 L 376.1 578.1 L 385.3 574.7 L 394.4 571.1 L 403.2 567.2 L 411.9 562.9 L 420.3 558.4 L 428.6 553.6 L 436.6 548.5 L 444.4 543.2 L 451.9 537.6 L 459.2 531.7 L 466.3 525.6 L 473.1 519.3 L 479.6 512.8 L 485.9 506.0 L 491.8 499.0 L 497.6 491.8 L 503.0 484.4 L 508.1 476.8 L 513.0 469.1 L 517.5 461.2 L 521.8 453.1 L 525.8 444.9 L 529.4 436.5 L 532.8 428.1 L 535.9 419.5 L 538.6 410.8 L 541.1 402.0 L 543.2 393.1 L 545.0 384.1 L 546.6 375.1 L 547.8 366.0 L 548.7 356.8 L 549.3 347.7 L 549.7 338.5 L 549.7 329.3 L 549.4 320.0 L 548.8 310.8 L 548.0 301.6 L 546.8 292.4 L 545.4 283.2 L 543.7 274.1 L 541.7 265.0 L 539.4 256.0 L 536.9 247.0 L 534.1 238.1 L 531.0 229.3 L 527.7 220.6 L 524.1 212.0 L 520.3 203.5 L 516.3 195.1 L 512.0 186.8 L 507.5 178.7 L 502.8 170.7 L 497.8 162.8 L 492.7 155.1 L 487.3 147.6 L 481.8 140.2 L 476.1 133.0 L 470.2 126.0 L 464.1 119.1 L 457.9 112.5 L 451.5 106.0 L 444.9 99.7 L 438.2 93.7 L 431.4 87.8 L 424.5 82.2 L 417.4 76.8 L 410.3 71.6 L 403.0 66.6 L 395.6 61.9 L 388.2 57.4 L 380.7 53.1 L 373.1 49.1 L 365.5 45.3 L 357.8 41.8 L 350.0 38.5 L 342.3 35.4 L 334.5 32.6 L 326.7 30.0 L 318.8 27.7 L 311.0 25.7 L 303.2 23.9 L 295.4 22.3 L 287.6 21.0 L 279.9 20.0 L 272.2 19.2 L 264.5 18.6 L 256.9 18.3 L 249.4 18.3 L 241.9 18.5 L 234.5 18.9 L 227.2 19.6 L 219.9 20.5 L 212.8 21.6 L 205.8 23.0 L 198.9 24.6 L 192.1 26.4 L 185.5 28.5 L 178.9 30.8 L 172.5 33.2 L 166.3 35.9 L 160.2 38.8 L 154.2 41.9 L 148.5 45.2 L 142.8 48.7 L 137.4 52.4 L 132.1 56.2 L 127.0 60.2 L 122.1 64.4 L 117.4 68.8 L 112.9 73.3 L 108.5 77.9 L 104.4 82.7 L 100.5 87.6 L 96.7 92.7 L 93.2 97.8 L 89.9 103.1 L 86.8 108.5 L 83.9 114.0 L 81.2 119.6 L 78.7 125.2 L 76.4 131.0 L 74.4 136.8 L 72.6 142.7 L 70.9 148.6 L 69.5 154.6 L 68.3 160.6 L 67.3 166.6 L 66.6 172.7 L 66.0 178.8 L 65.6 184.9 L 65.5 191.0 L 65.5 197.1 L 65.8 203.2 L 66.2 209.3 L 66.9 215.3 L 67.7 221.4 L 68.7 227.4 L 69.9 233.3 L 71.3 239.2 L 72.9 245.1 L 74.6 250.9 L 76.5 256.6 L 78.6 262.3 L 80.8 267.8 L 83.2 273.3 L 85.8 278.8 L 88.5 284.1 L 91.3 289.3 L 94.3 294.4 L 97.4 299.4 L 100.7 304.3 L 104.1 309.1 L 107.5 313.8 L 111.1 318.3 L 114.9 322.8 L 118.7 327.1 L 122.6 331.2 L 126.6 335.2 L 130.7 339.1 L 134.8 342.8 L 139.1 346.4 L 143.4 349.9 L 147.7 353.2 L 152.1 356.3 L 156.6 359.3 L 161.1 362.1 L 165.7 364.8 L 170.3 367.3 L 174.9 369.7 L 179.5 371.9 L 184.2 373.9 L 188.8 375.8 L 193.5 377.5 L 198.2 379.1 L 202.8 380.5 L 207.5 381.7 L 212.1 382.8 L 216.7 383.7 L 221.3 384.4 L 225.8 385.0 L 230.3 385.5 L 234.8 385.7 L 239.2 385.9 L 243.5 385.8 L 247.8 385.7 L 252.0 385.4 L 256.2 384.9 L 260.3 384.3 L 264.3 383.5 L 268.2 382.6 L 272.1 381.6 L 275.8 380.5 L 279.5 379.2 L 283.0 377.8 L 286.5 376.3 L 289.9 374.6 L 293.1 372.9 L 296.2 371.0 L 299.3 369.1 L 302.2 367.0 L 305.0 364.8 L 307.7 362.6 L 310.2 360.3 L 312.6 357.8 L 314.9 355.3 L 317.1 352.8 L 319.2 350.1 L 321.1 347.4 L 322.9 344.7 L 324.5 341.9 L 326.1 339.0 L 327.5 336.2 L 328.7 333.2 L 329.9 330.3 L 330.9 327.3 L 331.7 324.3 L 332.5 321.3 L 333.1 318.3 L 333.6 315.2 L 333.9 312.2 L 334.2 309.2 L 334.3 306.2 L 334.3 303.2 L 334.2 300.2 L 334.0 297.3 L 333.6 294.3 L 333.2 291.5 L 332.6 288.6 L 332.0 285.8 L 331.2 283.0 L 330.4 280.3 L 329.4 277.7 L 328.4 275.1 L 327.3 272.5 L 326.0 270.1 L 324.8 267.7 L 323.4 265.3 L 321.9 263.1 L 320.4 260.9 L 318.9 258.8 L 317.2 256.8 L 315.5 254.9 L 313.8 253.0 L 312.0 251.3 L 310.2 249.6 L 308.3 248.1 L 306.4 246.6 L 304.5 245.3 L 302.5 244.0 L 300.5 242.9 L 298.5 241.8 L 296.5 240.9 L 294.5 240.1 L 292.4 239.4 L 290.4 238.8 L 288.4 238.3 L 286.4 237.9 L 284.4 237.7 L 282.4 237.5 L 280.4 237.5 L 278.5 237.6 L 276.6 237.9 L 274.8 238.2 L 273.0 238.7 L 271.2 239.3 L 269.5 240.1 L 267.9 241.0 L 266.3 242.1 L 264.7 243.4 L 263.1 245.3 Z" fill="#ee0000"/>
  <path d="M 269.5 254.8 L 272.1 255.4 L 274.2 256.0 L 276.1 256.8 L 278.0 257.6 L 279.7 258.5 L 281.4 259.5 L 283.0 260.6 L 284.6 261.7 L 286.1 263.0 L 287.5 264.3 L 288.9 265.7 L 290.2 267.2 L 291.5 268.7 L 292.6 270.3 L 293.7 272.0 L 294.8 273.7 L 295.7 275.5 L 296.6 277.3 L 297.4 279.2 L 298.1 281.1 L 298.8 283.1 L 299.3 285.1 L 299.8 287.1 L 300.2 289.2 L 300.5 291.3 L 300.7 293.4 L 300.8 295.5 L 300.8 297.6 L 300.7 299.8 L 300.5 301.9 L 300.2 304.1 L 299.8 306.2 L 299.3 308.4 L 298.7 310.5 L 298.0 312.6 L 297.2 314.7 L 296.3 316.7 L 295.3 318.8 L 294.2 320.8 L 293.0 322.7 L 291.7 324.7 L 290.3 326.5 L 288.8 328.4 L 287.2 330.2 L 285.5 331.9 L 283.7 333.6 L 281.8 335.2 L 279.8 336.7 L 277.7 338.2 L 275.5 339.6 L 273.2 340.9 L 270.9 342.1 L 268.4 343.3 L 265.9 344.3 L 263.2 345.3 L 260.5 346.2 L 257.7 346.9 L 254.9 347.6 L 251.9 348.2 L 248.9 348.7 L 245.9 349.0 L 242.7 349.3 L 239.5 349.4 L 236.3 349.4 L 232.9 349.3 L 229.6 349.1 L 226.2 348.7 L 222.7 348.3 L 219.3 347.7 L 215.7 346.9 L 212.2 346.1 L 208.6 345.1 L 205.1 344.0 L 201.5 342.7 L 197.9 341.3 L 194.2 339.8 L 190.6 338.2 L 187.0 336.4 L 183.5 334.5 L 179.9 332.4 L 176.3 330.2 L 172.8 327.9 L 169.3 325.5 L 165.9 322.9 L 162.4 320.2 L 159.1 317.4 L 155.8 314.5 L 152.5 311.4 L 149.3 308.2 L 146.2 305.0 L 143.2 301.5 L 140.2 298.0 L 137.3 294.4 L 134.5 290.7 L 131.8 286.8 L 129.2 282.9 L 126.7 278.9 L 124.3 274.7 L 122.0 270.5 L 119.9 266.3 L 117.8 261.9 L 115.9 257.5 L 114.1 253.0 L 112.4 248.4 L 110.9 243.8 L 109.5 239.1 L 108.3 234.3 L 107.2 229.6 L 106.2 224.7 L 105.4 219.9 L 104.8 215.0 L 104.3 210.1 L 104.0 205.2 L 103.8 200.3 L 103.8 195.3 L 104.0 190.4 L 104.3 185.5 L 104.8 180.6 L 105.5 175.7 L 106.4 170.8 L 107.4 166.0 L 108.6 161.2 L 109.9 156.4 L 111.5 151.7 L 113.2 147.0 L 115.1 142.4 L 117.1 137.9 L 119.3 133.4 L 121.7 129.0 L 124.3 124.7 L 127.1 120.5 L 130.0 116.4 L 133.0 112.3 L 136.3 108.4 L 139.7 104.6 L 143.3 100.9 L 147.0 97.3 L 150.9 93.8 L 154.9 90.5 L 159.1 87.3 L 163.5 84.3 L 168.0 81.4 L 172.6 78.6 L 177.4 76.0 L 182.3 73.5 L 187.3 71.3 L 192.5 69.1 L 197.8 67.2 L 203.2 65.4 L 208.8 63.8 L 214.4 62.4 L 220.2 61.2 L 226.0 60.2 L 232.0 59.3 L 238.0 58.7 L 244.1 58.3 L 250.3 58.0 L 256.6 58.0 L 262.9 58.1 L 269.3 58.5 L 275.8 59.1 L 282.2 59.9 L 288.8 60.9 L 295.3 62.2 L 301.9 63.6 L 308.5 65.3 L 315.2 67.1 L 321.8 69.2 L 328.4 71.5 L 335.0 74.1 L 341.6 76.8 L 348.2 79.7 L 354.7 82.9 L 361.2 86.3 L 367.6 89.9 L 374.0 93.7 L 380.3 97.6 L 386.6 101.8 L 392.8 106.2 L 398.9 110.8 L 404.8 115.6 L 410.7 120.6 L 416.5 125.8 L 422.2 131.1 L 427.7 136.6 L 433.1 142.3 L 438.4 148.2 L 443.6 154.2 L 448.5 160.4 L 453.4 166.7 L 458.0 173.2 L 462.5 179.8 L 466.8 186.6 L 471.0 193.5 L 474.9 200.5 L 478.6 207.6 L 482.2 214.8 L 485.5 222.2 L 488.7 229.6 L 491.6 237.1 L 494.3 244.7 L 496.8 252.3 L 499.0 260.1 L 501.0 267.9 L 502.8 275.7 L 504.3 283.6 L 505.6 291.5 L 506.7 299.4 L 507.5 307.3 L 508.0 315.3 L 508.3 323.2 L 508.3 331.1 L 508.1 339.1 L 507.6 347.0 L 506.9 354.8 L 505.9 362.6 L 504.7 370.4 L 503.1 378.1 L 501.4 385.7 L 499.3 393.2 L 497.0 400.7 L 494.4 408.1 L 491.6 415.3 L 488.5 422.5 L 485.2 429.5 L 481.6 436.5 L 477.8 443.2 L 473.7 449.9 L 469.3 456.4 L 464.7 462.7 L 459.9 468.9 L 454.9 474.9 L 449.6 480.7 L 444.0 486.3 L 438.3 491.8 L 432.3 497.0 L 426.1 502.0 L 419.7 506.9 L 413.0 511.5 L 406.2 515.9 L 399.2 520.0 L 392.0 523.9 L 384.5 527.6 L 377.0 531.0 L 369.2 534.2 L 361.3 537.1 L 353.2 539.8 L 344.9 542.2 L 336.5 544.3 L 328.0 546.1 L 319.3 547.7 L 310.5 549.0 L 301.6 550.0 L 292.6 550.7 L 283.5 551.1 L 274.3 551.2 L 265.0 551.0 L 255.7 550.5 L 246.3 549.7 L 236.8 548.7 L 227.3 547.3 L 217.7 545.6 L 208.2 543.6 L 198.6 541.3 L 189.0 538.7 L 179.4 535.7 L 169.9 532.5 L 160.3 529.0 L 150.8 525.2 L 141.4 521.1 L 132.0 516.7 L 122.7 512.0 L 113.4 507.0 L 104.3 501.7 L 95.2 496.2 L 86.2 490.3 L 77.4 484.2 L 68.7 477.8 L 60.1 471.2 L 51.7 464.3 L 43.4 457.2 L 35.4 449.8 L 27.4 442.1 L 19.7 434.2 L 12.2 426.1 L 4.8 417.8 L -2.3 409.3 L -9.2 400.5 L -15.9 391.6 L -22.3 382.5 L -28.5 373.2 L -34.4 363.7 L -40.1 354.1 L -45.5 344.3 L -50.6 334.4 L -55.4 324.3 L -60.0 314.1 L -64.2 303.8 L -68.2 293.4 L -71.8 282.9 A 10.0 10.0 0 0 1 -90.8 289.2 L -86.9 300.3 L -82.7 311.2 L -78.2 322.0 L -73.4 332.7 L -68.3 343.2 L -62.9 353.6 L -57.2 363.9 L -51.2 374.0 L -45.0 383.9 L -38.4 393.6 L -31.7 403.1 L -24.6 412.5 L -17.4 421.6 L -9.9 430.5 L -2.2 439.2 L 5.7 447.6 L 13.9 455.9 L 22.2 463.8 L 30.7 471.5 L 39.4 479.0 L 48.2 486.2 L 57.2 493.1 L 66.4 499.8 L 75.7 506.1 L 85.1 512.2 L 94.6 518.0 L 104.3 523.5 L 114.0 528.7 L 123.8 533.6 L 133.7 538.2 L 143.6 542.5 L 153.7 546.5 L 163.7 550.1 L 173.8 553.5 L 183.9 556.5 L 194.0 559.2 L 204.2 561.6 L 214.3 563.7 L 224.4 565.4 L 234.5 566.9 L 244.5 568.0 L 254.5 568.8 L 264.4 569.2 L 274.3 569.4 L 284.1 569.2 L 293.8 568.7 L 303.4 567.9 L 312.9 566.8 L 322.3 565.4 L 331.5 563.7 L 340.6 561.7 L 349.6 559.4 L 358.5 556.8 L 367.1 553.9 L 375.6 550.7 L 384.0 547.3 L 392.1 543.5 L 400.1 539.5 L 407.9 535.3 L 415.4 530.7 L 422.8 526.0 L 429.9 520.9 L 436.8 515.7 L 443.5 510.2 L 449.9 504.5 L 456.1 498.6 L 462.1 492.5 L 467.8 486.1 L 473.2 479.6 L 478.4 472.9 L 483.3 466.0 L 488.0 459.0 L 492.4 451.8 L 496.5 444.5 L 500.3 437.0 L 503.9 429.4 L 507.1 421.6 L 510.1 413.8 L 512.8 405.9 L 515.3 397.8 L 517.4 389.7 L 519.3 381.5 L 520.9 373.2 L 522.2 364.9 L 523.2 356.6 L 523.9 348.2 L 524.4 339.7 L 524.6 331.3 L 524.5 322.8 L 524.1 314.4 L 523.5 305.9 L 522.6 297.5 L 521.4 289.1 L 520.0 280.7 L 518.4 272.4 L 516.4 264.1 L 514.2 255.8 L 511.8 247.7 L 509.2 239.6 L 506.3 231.6 L 503.1 223.7 L 499.8 215.8 L 496.2 208.1 L 492.4 200.5 L 488.4 193.1 L 484.2 185.7 L 479.9 178.5 L 475.3 171.4 L 470.5 164.4 L 465.6 157.6 L 460.4 151.0 L 455.2 144.5 L 449.7 138.2 L 444.1 132.1 L 438.4 126.1 L 432.5 120.4 L 426.5 114.8 L 420.4 109.4 L 414.2 104.2 L 407.8 99.2 L 401.4 94.4 L 394.9 89.8 L 388.3 85.4 L 381.6 81.2 L 374.8 77.3 L 368.0 73.6 L 361.1 70.0 L 354.2 66.7 L 347.2 63.7 L 340.2 60.8 L 333.2 58.2 L 326.2 55.8 L 319.1 53.6 L 312.1 51.7 L 305.1 50.0 L 298.1 48.5 L 291.1 47.3 L 284.1 46.2 L 277.2 45.4 L 270.3 44.8 L 263.4 44.5 L 256.7 44.4 L 249.9 44.5 L 243.3 44.8 L 236.7 45.3 L 230.2 46.0 L 223.9 47.0 L 217.6 48.2 L 211.4 49.5 L 205.3 51.1 L 199.3 52.9 L 193.5 54.9 L 187.7 57.0 L 182.1 59.4 L 176.7 61.9 L 171.4 64.6 L 166.2 67.5 L 161.2 70.5 L 156.3 73.8 L 151.6 77.1 L 147.0 80.7 L 142.7 84.4 L 138.5 88.2 L 134.4 92.1 L 130.6 96.2 L 126.9 100.4 L 123.4 104.8 L 120.1 109.2 L 116.9 113.7 L 114.0 118.4 L 111.2 123.1 L 108.7 127.9 L 106.3 132.8 L 104.1 137.8 L 102.1 142.8 L 100.3 147.9 L 98.7 153.0 L 97.3 158.2 L 96.1 163.4 L 95.0 168.7 L 94.2 174.0 L 93.5 179.3 L 93.0 184.6 L 92.7 189.9 L 92.6 195.2 L 92.6 200.5 L 92.9 205.8 L 93.3 211.1 L 93.9 216.3 L 94.6 221.6 L 95.5 226.7 L 96.6 231.9 L 97.8 237.0 L 99.2 242.0 L 100.8 247.0 L 102.4 251.9 L 104.3 256.8 L 106.2 261.5 L 108.3 266.2 L 110.6 270.8 L 112.9 275.4 L 115.4 279.8 L 118.0 284.2 L 120.7 288.4 L 123.6 292.5 L 126.5 296.6 L 129.5 300.5 L 132.6 304.3 L 135.8 308.0 L 139.1 311.6 L 142.5 315.0 L 145.9 318.4 L 149.4 321.6 L 153.0 324.6 L 156.6 327.6 L 160.3 330.4 L 164.0 333.0 L 167.7 335.6 L 171.5 338.0 L 175.3 340.2 L 179.2 342.4 L 183.0 344.3 L 186.9 346.2 L 190.8 347.9 L 194.7 349.4 L 198.6 350.8 L 202.4 352.1 L 206.3 353.3 L 210.2 354.2 L 214.0 355.1 L 217.8 355.8 L 221.6 356.4 L 225.3 356.8 L 229.0 357.1 L 232.6 357.3 L 236.2 357.3 L 239.8 357.2 L 243.3 357.0 L 246.7 356.7 L 250.0 356.2 L 253.3 355.6 L 256.5 354.9 L 259.7 354.1 L 262.7 353.1 L 265.7 352.1 L 268.6 350.9 L 271.4 349.7 L 274.1 348.3 L 276.7 346.9 L 279.1 345.3 L 281.5 343.7 L 283.8 342.0 L 286.0 340.2 L 288.1 338.3 L 290.0 336.4 L 291.9 334.4 L 293.6 332.4 L 295.2 330.2 L 296.7 328.1 L 298.1 325.9 L 299.4 323.6 L 300.5 321.3 L 301.5 319.0 L 302.5 316.7 L 303.2 314.3 L 303.9 311.9 L 304.5 309.6 L 304.9 307.2 L 305.3 304.8 L 305.5 302.4 L 305.6 300.0 L 305.6 297.6 L 305.5 295.3 L 305.2 292.9 L 304.9 290.6 L 304.5 288.4 L 304.0 286.1 L 303.3 284.0 L 302.6 281.8 L 301.8 279.7 L 300.9 277.7 L 299.9 275.7 L 298.9 273.8 L 297.7 271.9 L 296.5 270.1 L 295.2 268.4 L 293.8 266.8 L 292.4 265.2 L 290.8 263.7 L 289.3 262.4 L 287.6 261.1 L 285.9 259.9 L 284.2 258.8 L 282.4 257.8 L 280.5 256.9 L 278.6 256.2 L 276.5 255.6 L 274.4 255.1 L 272.2 254.8 L 269.5 254.8 Z" fill="#ffdd00"/>
  <path d="M 268.0 265.0 L 269.7 267.2 L 271.0 269.2 L 272.1 271.0 L 273.0 272.8 L 273.8 274.6 L 274.5 276.5 L 275.1 278.3 L 275.5 280.1 L 275.9 281.9 L 276.1 283.7 L 276.2 285.5 L 276.3 287.3 L 276.2 289.1 L 276.0 290.9 L 275.7 292.7 L 275.4 294.4 L 274.9 296.1 L 274.3 297.8 L 273.7 299.5 L 272.9 301.1 L 272.0 302.7 L 271.1 304.3 L 270.0 305.8 L 268.9 307.2 L 267.7 308.7 L 266.3 310.0 L 264.9 311.3 L 263.4 312.6 L 261.8 313.8 L 260.2 314.9 L 258.4 315.9 L 256.6 316.9 L 254.7 317.8 L 252.7 318.6 L 250.6 319.4 L 248.5 320.0 L 246.3 320.6 L 244.0 321.1 L 241.6 321.5 L 239.2 321.8 L 236.8 322.0 L 234.3 322.1 L 231.7 322.1 L 229.1 322.0 L 226.4 321.8 L 223.7 321.5 L 220.9 321.1 L 218.1 320.5 L 215.3 319.9 L 212.5 319.1 L 209.6 318.3 L 206.8 317.3 L 203.9 316.2 L 201.0 315.0 L 198.1 313.6 L 195.2 312.2 L 192.3 310.6 L 189.4 308.9 L 186.5 307.1 L 183.7 305.2 L 180.9 303.2 L 178.1 301.1 L 175.3 298.8 L 172.6 296.5 L 169.9 294.0 L 167.3 291.5 L 164.7 288.8 L 162.2 286.0 L 159.8 283.1 L 157.4 280.2 L 155.1 277.1 L 152.8 273.9 L 150.7 270.7 L 148.6 267.3 L 146.6 263.9 L 144.7 260.4 L 142.9 256.9 L 141.2 253.2 L 139.7 249.5 L 138.2 245.7 L 136.8 241.9 L 135.6 238.0 L 134.5 234.1 L 133.5 230.1 L 132.6 226.1 L 131.8 222.0 L 131.2 217.9 L 130.7 213.8 L 130.4 209.7 L 130.2 205.5 L 130.1 201.4 L 130.2 197.2 L 130.4 193.0 L 130.8 188.8 L 131.3 184.7 L 132.0 180.5 L 132.8 176.4 L 133.7 172.3 L 134.9 168.2 L 136.1 164.2 L 137.5 160.2 L 139.1 156.2 L 140.8 152.3 L 142.7 148.5 L 144.8 144.7 L 146.9 141.0 L 149.3 137.3 L 151.8 133.8 L 154.4 130.3 L 157.2 126.9 L 160.1 123.6 L 163.2 120.4 L 166.4 117.3 L 169.7 114.3 L 173.2 111.4 L 176.9 108.6 L 180.6 106.0 L 184.5 103.5 L 188.6 101.1 L 192.7 98.8 L 197.0 96.7 L 201.4 94.7 L 205.9 92.9 L 210.6 91.2 L 215.3 89.6 L 220.2 88.3 L 225.1 87.0 L 230.1 86.0 L 235.3 85.1 L 240.5 84.4 L 245.8 83.9 L 251.2 83.5 L 256.7 83.3 L 262.2 83.3 L 267.8 83.5 L 273.4 83.9 L 279.1 84.5 L 284.9 85.2 L 290.6 86.1 L 296.4 87.3 L 302.3 88.6 L 308.1 90.1 L 314.0 91.8 L 319.8 93.7 L 325.7 95.8 L 331.6 98.1 L 337.4 100.6 L 343.2 103.3 L 349.0 106.2 L 354.8 109.2 L 360.5 112.5 L 366.2 115.9 L 371.8 119.5 L 377.3 123.4 L 382.8 127.3 L 388.2 131.5 L 393.5 135.8 L 398.8 140.4 L 403.9 145.0 L 408.9 149.9 L 413.8 154.9 L 418.6 160.1 L 423.3 165.4 L 427.9 170.8 L 432.3 176.4 L 436.5 182.2 L 440.6 188.1 L 444.6 194.1 L 448.4 200.2 L 452.1 206.4 L 455.5 212.8 L 458.8 219.2 L 461.9 225.8 L 464.8 232.4 L 467.6 239.2 L 470.1 246.0 L 472.4 252.9 L 474.6 259.8 L 476.5 266.8 L 478.2 273.9 L 479.7 281.0 L 481.0 288.1 L 482.0 295.3 L 482.9 302.5 L 483.5 309.7 L 483.8 316.9 L 484.0 324.1 L 483.9 331.2 L 483.6 338.4 L 483.0 345.6 L 482.2 352.7 L 481.2 359.7 L 479.9 366.8 L 478.4 373.7 L 476.6 380.6 L 474.6 387.4 L 472.4 394.2 L 469.9 400.9 L 467.2 407.4 L 464.2 413.9 L 461.1 420.2 L 457.7 426.5 L 454.0 432.6 L 450.1 438.5 L 446.0 444.4 L 441.7 450.1 L 437.2 455.6 L 432.4 461.0 L 427.4 466.2 L 422.2 471.3 L 416.8 476.1 L 411.2 480.8 L 405.4 485.3 L 399.4 489.6 L 393.3 493.7 L 386.9 497.6 L 380.3 501.2 L 373.6 504.7 L 366.7 507.9 L 359.6 510.9 L 352.4 513.7 L 345.0 516.2 L 337.5 518.5 L 329.8 520.5 L 322.0 522.3 L 314.0 523.8 L 306.0 525.1 L 297.8 526.1 L 289.6 526.8 L 281.2 527.3 L 272.8 527.4 L 264.2 527.4 L 255.6 527.0 L 247.0 526.4 L 238.2 525.5 L 229.5 524.3 L 220.7 522.8 L 211.9 521.0 L 203.0 519.0 L 194.2 516.6 L 185.3 514.0 L 176.5 511.1 L 167.6 508.0 L 158.8 504.5 L 150.1 500.8 L 141.4 496.8 L 132.7 492.5 L 124.1 488.0 L 115.6 483.2 L 107.2 478.1 L 98.9 472.8 L 90.7 467.2 L 82.6 461.3 L 74.6 455.2 L 66.7 448.9 L 59.0 442.3 L 51.5 435.5 L 44.1 428.5 L 36.8 421.2 L 29.8 413.7 L 22.9 406.1 L 16.3 398.2 L 9.8 390.1 L 3.5 381.8 L -2.5 373.4 L -8.3 364.8 L -13.9 356.0 L -19.2 347.1 L -24.3 338.0 L -29.1 328.8 L -33.7 319.4 L -38.0 310.0 L -42.0 300.4 L -45.8 290.7 L -49.3 281.0 L -52.4 271.1 L -55.3 261.2 L -57.9 251.2 L -60.2 241.2 L -62.2 231.1 L -63.8 221.0 L -65.2 210.9 L -66.2 200.7 L -66.9 190.6 L -67.3 180.4 L -67.4 170.3 L -67.2 160.3 L -66.6 150.2 L -65.7 140.2 L -64.4 130.3 L -62.9 120.5 L -61.0 110.7 L -58.8 101.0 L -56.2 91.5 L -53.4 82.0 L -50.2 72.7 L -46.7 63.5 L -42.8 54.4 L -38.7 45.5 L -34.2 36.8 A 10.0 10.0 0 0 1 -51.8 27.4 L -56.6 36.8 L -61.0 46.4 L -65.1 56.1 L -68.8 66.0 L -72.2 76.0 L -75.2 86.1 L -77.9 96.3 L -80.3 106.7 L -82.2 117.1 L -83.9 127.6 L -85.1 138.2 L -86.0 148.8 L -86.6 159.5 L -86.9 170.2 L -86.7 180.9 L -86.3 191.7 L -85.5 202.4 L -84.3 213.1 L -82.9 223.9 L -81.1 234.5 L -78.9 245.2 L -76.5 255.8 L -73.7 266.3 L -70.6 276.7 L -67.2 287.1 L -63.5 297.4 L -59.6 307.5 L -55.3 317.6 L -50.7 327.5 L -45.9 337.3 L -40.8 347.0 L -35.4 356.5 L -29.7 365.8 L -23.9 375.0 L -17.7 384.0 L -11.4 392.8 L -4.8 401.5 L 2.0 409.9 L 9.1 418.2 L 16.3 426.2 L 23.7 434.0 L 31.3 441.6 L 39.1 448.9 L 47.1 456.0 L 55.2 462.9 L 63.4 469.5 L 71.8 475.8 L 80.4 481.9 L 89.0 487.8 L 97.8 493.3 L 106.6 498.6 L 115.6 503.6 L 124.7 508.4 L 133.8 512.8 L 143.0 517.0 L 152.2 520.9 L 161.5 524.5 L 170.8 527.8 L 180.1 530.8 L 189.5 533.5 L 198.9 535.9 L 208.2 538.0 L 217.6 539.9 L 226.9 541.4 L 236.2 542.6 L 245.5 543.5 L 254.7 544.2 L 263.8 544.5 L 272.9 544.5 L 281.9 544.3 L 290.8 543.8 L 299.7 542.9 L 308.4 541.8 L 317.0 540.4 L 325.5 538.7 L 333.8 536.8 L 342.1 534.6 L 350.1 532.1 L 358.1 529.3 L 365.8 526.3 L 373.5 523.0 L 380.9 519.5 L 388.1 515.7 L 395.2 511.7 L 402.1 507.5 L 408.7 503.0 L 415.2 498.3 L 421.5 493.4 L 427.5 488.3 L 433.3 483.0 L 438.9 477.5 L 444.3 471.8 L 449.4 466.0 L 454.3 459.9 L 458.9 453.7 L 463.3 447.4 L 467.5 440.9 L 471.4 434.2 L 475.0 427.5 L 478.4 420.6 L 481.6 413.6 L 484.4 406.5 L 487.1 399.3 L 489.4 392.0 L 491.5 384.6 L 493.4 377.2 L 494.9 369.7 L 496.3 362.2 L 497.3 354.6 L 498.1 347.0 L 498.7 339.3 L 499.0 331.6 L 499.0 324.0 L 498.8 316.3 L 498.4 308.6 L 497.7 300.9 L 496.8 293.3 L 495.6 285.7 L 494.2 278.1 L 492.6 270.6 L 490.7 263.1 L 488.6 255.7 L 486.3 248.3 L 483.8 241.1 L 481.0 233.9 L 478.1 226.8 L 475.0 219.8 L 471.6 212.9 L 468.1 206.1 L 464.4 199.4 L 460.5 192.8 L 456.5 186.4 L 452.3 180.1 L 447.9 173.9 L 443.3 167.9 L 438.6 162.0 L 433.8 156.3 L 428.8 150.7 L 423.8 145.3 L 418.5 140.1 L 413.2 135.0 L 407.8 130.1 L 402.2 125.4 L 396.6 120.9 L 390.8 116.5 L 385.0 112.4 L 379.1 108.4 L 373.2 104.6 L 367.2 101.0 L 361.1 97.6 L 355.0 94.5 L 348.8 91.5 L 342.6 88.7 L 336.4 86.1 L 330.2 83.7 L 324.0 81.5 L 317.7 79.6 L 311.5 77.8 L 305.2 76.2 L 299.0 74.9 L 292.8 73.7 L 286.6 72.8 L 280.5 72.0 L 274.4 71.5 L 268.3 71.2 L 262.3 71.0 L 256.4 71.1 L 250.5 71.3 L 244.7 71.8 L 239.0 72.4 L 233.4 73.2 L 227.9 74.2 L 222.4 75.4 L 217.1 76.8 L 211.8 78.3 L 206.7 80.1 L 201.7 81.9 L 196.8 84.0 L 192.0 86.2 L 187.3 88.6 L 182.8 91.1 L 178.5 93.8 L 174.2 96.6 L 170.1 99.5 L 166.2 102.6 L 162.4 105.8 L 158.8 109.2 L 155.3 112.6 L 151.9 116.2 L 148.8 119.9 L 145.8 123.6 L 142.9 127.5 L 140.3 131.4 L 137.8 135.4 L 135.4 139.5 L 133.3 143.7 L 131.3 147.9 L 129.4 152.2 L 127.8 156.6 L 126.3 161.0 L 125.0 165.4 L 123.8 169.8 L 122.8 174.3 L 122.0 178.8 L 121.4 183.3 L 120.9 187.9 L 120.5 192.4 L 120.4 196.9 L 120.3 201.4 L 120.5 205.9 L 120.8 210.4 L 121.2 214.8 L 121.8 219.3 L 122.5 223.7 L 123.4 228.0 L 124.4 232.3 L 125.5 236.6 L 126.8 240.8 L 128.2 244.9 L 129.7 249.0 L 131.4 253.0 L 133.1 256.9 L 135.0 260.8 L 137.0 264.6 L 139.1 268.3 L 141.2 271.9 L 143.5 275.4 L 145.9 278.8 L 148.3 282.1 L 150.8 285.3 L 153.4 288.5 L 156.1 291.5 L 158.8 294.4 L 161.6 297.2 L 164.5 299.9 L 167.4 302.4 L 170.3 304.9 L 173.3 307.2 L 176.4 309.4 L 179.4 311.5 L 182.5 313.5 L 185.6 315.4 L 188.7 317.1 L 191.9 318.7 L 195.0 320.2 L 198.2 321.5 L 201.3 322.8 L 204.5 323.9 L 207.6 324.9 L 210.7 325.7 L 213.8 326.5 L 216.9 327.1 L 219.9 327.6 L 222.9 327.9 L 225.9 328.2 L 228.8 328.3 L 231.7 328.3 L 234.5 328.3 L 237.3 328.0 L 240.0 327.7 L 242.6 327.3 L 245.2 326.8 L 247.7 326.1 L 250.1 325.4 L 252.5 324.6 L 254.8 323.6 L 256.9 322.6 L 259.0 321.5 L 261.1 320.3 L 263.0 319.0 L 264.8 317.7 L 266.5 316.3 L 268.1 314.8 L 269.6 313.2 L 271.1 311.6 L 272.4 309.9 L 273.6 308.2 L 274.6 306.4 L 275.6 304.6 L 276.5 302.8 L 277.2 300.9 L 277.8 299.0 L 278.3 297.1 L 278.7 295.1 L 279.0 293.2 L 279.2 291.2 L 279.2 289.2 L 279.2 287.3 L 279.0 285.3 L 278.7 283.4 L 278.3 281.4 L 277.7 279.5 L 277.1 277.6 L 276.3 275.8 L 275.4 273.9 L 274.3 272.1 L 273.2 270.3 L 271.8 268.6 L 270.2 266.8 L 268.0 265.0 Z" fill="#990000"/>
  </g>
  <path d="M 255.8 269.7 L 253.4 272.6 L 252.0 274.8 L 250.7 276.7 L 249.3 278.3 L 248.0 279.8 L 246.5 281.2 L 245.0 282.4 L 243.5 283.5 L 241.8 284.5 L 240.1 285.4 L 238.3 286.2 L 236.5 286.8 L 234.5 287.4 L 232.4 287.9 L 230.3 288.2 L 228.1 288.4 L 225.8 288.5 L 223.5 288.4 L 221.1 288.2 L 218.6 287.9 L 216.1 287.4 L 213.6 286.8 L 211.0 286.1 L 208.4 285.2 L 205.7 284.2 L 203.1 283.0 L 200.4 281.7 L 197.8 280.2 L 195.1 278.6 L 192.5 276.8 L 189.8 274.9 L 187.2 272.9 L 184.7 270.7 L 182.2 268.4 L 179.7 266.0 L 177.3 263.4 L 175.0 260.7 L 172.7 257.9 L 170.5 255.0 L 168.4 251.9 L 166.4 248.8 L 164.5 245.5 L 162.7 242.1 L 161.0 238.7 L 159.4 235.1 L 158.0 231.5 L 156.6 227.8 L 155.4 224.0 L 154.4 220.2 L 153.4 216.3 L 152.7 212.4 L 152.0 208.4 L 151.6 204.3 L 151.2 200.3 L 151.1 196.2 L 151.1 192.1 L 151.2 188.0 L 151.6 183.9 L 152.1 179.8 L 152.7 175.7 L 153.6 171.6 L 154.6 167.6 L 155.8 163.6 L 157.2 159.6 L 158.7 155.7 L 160.5 151.8 L 162.4 147.9 L 164.4 144.2 L 166.7 140.5 L 169.2 136.9 L 171.8 133.4 L 174.6 129.9 L 177.6 126.6 L 180.7 123.4 L 184.0 120.2 L 187.6 117.2 L 191.2 114.4 L 195.1 111.6 L 199.1 109.0 L 203.3 106.5 L 207.6 104.2 L 212.2 102.1 L 216.8 100.1 L 221.7 98.3 L 226.6 96.7 L 231.7 95.2 L 237.0 93.9 L 242.4 92.9 L 247.9 92.0 L 253.5 91.4 L 259.3 90.9 L 265.2 90.7 L 271.1 90.7 L 277.2 90.9 L 283.3 91.3 L 289.5 92.0 L 295.8 92.9 L 302.1 94.1 L 308.5 95.5 L 315.0 97.1 L 321.4 99.0 L 327.9 101.1 L 334.4 103.5 L 340.9 106.1 L 347.4 109.0 L 353.9 112.1 L 360.3 115.5 L 366.7 119.1 L 373.1 123.0 L 379.3 127.0 L 385.6 131.4 L 391.7 135.9 L 397.8 140.7 L 403.7 145.7 L 409.6 151.0 L 415.3 156.4 L 420.9 162.1 L 426.3 168.0 L 431.6 174.0 L 436.7 180.3 L 441.7 186.8 L 446.5 193.4 L 451.1 200.2 L 455.5 207.1 L 459.7 214.3 L 463.7 221.5 L 467.4 228.9 L 471.0 236.5 L 474.3 244.1 L 477.3 251.9 L 480.1 259.8 L 482.6 267.7 L 484.9 275.7 L 486.9 283.8 L 488.7 292.0 L 490.1 300.2 L 491.3 308.4 L 492.2 316.7 L 492.8 325.0 L 493.1 333.3 L 493.1 341.6 L 492.8 349.8 L 492.2 358.1 L 491.3 366.2 L 490.2 374.4 L 488.7 382.5 L 486.8 390.5 L 484.7 398.4 L 482.3 406.2 L 479.6 413.9 L 476.6 421.5 L 473.3 429.0 L 469.6 436.3 L 465.7 443.5 L 461.5 450.6 L 457.0 457.4 L 452.2 464.1 L 447.1 470.6 L 441.7 477.0 L 436.0 483.1 L 430.1 489.0 L 423.9 494.7 L 417.4 500.1 L 410.6 505.3 L 403.6 510.3 L 396.3 515.0 L 388.8 519.5 L 381.0 523.7 L 373.0 527.5 L 364.8 531.1 L 356.3 534.5 L 347.6 537.5 L 338.7 540.1 L 329.6 542.5 L 320.4 544.5 L 310.9 546.2 L 301.3 547.6 L 291.5 548.6 L 281.6 549.3 L 271.5 549.6 L 261.3 549.5 L 251.0 549.1 L 240.7 548.3 L 230.2 547.1 L 219.6 545.6 L 209.0 543.6 L 198.4 541.3 L 187.7 538.6 L 177.0 535.6 L 166.3 532.1 L 155.6 528.3 L 144.9 524.1 L 134.3 519.5 L 123.7 514.6 L 113.2 509.2 L 102.8 503.6 L 92.5 497.5 L 82.3 491.1 L 72.3 484.3 L 62.3 477.2 L 31.3 516.4 L 42.5 524.3 L 53.9 531.9 L 65.4 539.0 L 77.0 545.8 L 88.8 552.1 L 100.6 558.1 L 112.6 563.6 L 124.7 568.7 L 136.8 573.4 L 149.0 577.7 L 161.2 581.5 L 173.4 585.0 L 185.6 588.0 L 197.8 590.5 L 210.0 592.7 L 222.2 594.4 L 234.3 595.7 L 246.3 596.5 L 258.2 597.0 L 270.1 597.0 L 281.8 596.6 L 293.4 595.7 L 304.9 594.5 L 316.2 592.8 L 327.4 590.8 L 338.3 588.3 L 349.1 585.5 L 359.7 582.2 L 370.0 578.6 L 380.2 574.6 L 390.1 570.2 L 399.7 565.5 L 409.1 560.4 L 418.2 555.0 L 427.0 549.3 L 435.5 543.2 L 443.7 536.8 L 451.6 530.1 L 459.1 523.2 L 466.4 515.9 L 473.3 508.4 L 479.8 500.7 L 486.0 492.7 L 491.9 484.5 L 497.4 476.1 L 502.5 467.5 L 507.2 458.7 L 511.6 449.7 L 515.6 440.6 L 519.2 431.4 L 522.5 422.0 L 525.3 412.6 L 527.8 403.0 L 529.9 393.4 L 531.7 383.7 L 533.1 373.9 L 534.1 364.2 L 534.7 354.4 L 535.0 344.5 L 534.9 334.7 L 534.5 324.9 L 533.7 315.2 L 532.6 305.5 L 531.1 295.8 L 529.3 286.2 L 527.2 276.7 L 524.8 267.3 L 522.1 258.0 L 519.0 248.8 L 515.7 239.7 L 512.1 230.7 L 508.2 221.9 L 504.1 213.3 L 499.6 204.8 L 495.0 196.5 L 490.1 188.3 L 484.9 180.4 L 479.6 172.6 L 474.0 165.1 L 468.2 157.8 L 462.3 150.6 L 456.1 143.7 L 449.8 137.1 L 443.3 130.7 L 436.7 124.5 L 429.9 118.6 L 423.0 112.9 L 416.0 107.5 L 408.9 102.3 L 401.7 97.4 L 394.3 92.8 L 387.0 88.5 L 379.5 84.4 L 372.0 80.6 L 364.5 77.1 L 356.9 73.8 L 349.3 70.9 L 341.7 68.2 L 334.0 65.8 L 326.4 63.7 L 318.8 61.9 L 311.3 60.3 L 303.8 59.0 L 296.3 58.0 L 288.9 57.3 L 281.5 56.9 L 274.2 56.7 L 267.1 56.8 L 260.0 57.2 L 253.0 57.8 L 246.1 58.7 L 239.4 59.8 L 232.7 61.2 L 226.3 62.9 L 219.9 64.8 L 213.7 66.9 L 207.7 69.2 L 201.9 71.8 L 196.2 74.6 L 190.7 77.5 L 185.4 80.7 L 180.3 84.1 L 175.4 87.7 L 170.7 91.4 L 166.2 95.3 L 162.0 99.4 L 157.9 103.6 L 154.1 108.0 L 150.5 112.5 L 147.2 117.1 L 144.0 121.8 L 141.1 126.7 L 138.5 131.6 L 136.1 136.6 L 133.9 141.6 L 132.0 146.7 L 130.3 151.9 L 128.8 157.1 L 127.6 162.3 L 126.6 167.6 L 125.8 172.8 L 125.3 178.1 L 125.0 183.3 L 124.9 188.5 L 125.0 193.7 L 125.3 198.9 L 125.8 204.0 L 126.5 209.0 L 127.5 214.0 L 128.6 218.8 L 129.9 223.7 L 131.3 228.4 L 133.0 233.0 L 134.7 237.5 L 136.7 241.9 L 138.8 246.2 L 141.0 250.4 L 143.4 254.4 L 145.9 258.3 L 148.5 262.1 L 151.3 265.7 L 154.1 269.2 L 157.0 272.5 L 160.0 275.7 L 163.1 278.7 L 166.3 281.6 L 169.6 284.3 L 172.9 286.8 L 176.2 289.1 L 179.6 291.3 L 183.0 293.3 L 186.4 295.1 L 189.9 296.7 L 193.4 298.2 L 196.8 299.4 L 200.3 300.5 L 203.7 301.4 L 207.2 302.1 L 210.6 302.6 L 213.9 303.0 L 217.2 303.1 L 220.5 303.1 L 223.7 302.9 L 226.8 302.5 L 229.8 301.9 L 232.8 301.1 L 235.6 300.1 L 238.4 298.9 L 241.0 297.6 L 243.5 296.1 L 245.8 294.3 L 248.0 292.4 L 250.0 290.3 L 251.8 288.1 L 253.3 285.6 L 254.7 283.0 L 255.7 280.2 L 256.4 277.1 L 256.8 273.8 L 255.8 269.7 Z" fill="#000"/>
  <path d="M 244.1 247.0 L 242.6 243.1 L 241.2 240.3 L 240.1 237.8 L 239.1 235.4 L 238.3 233.0 L 237.6 230.7 L 237.0 228.4 L 236.6 226.1 L 236.3 223.9 L 236.2 221.7 L 236.2 219.5 L 236.3 217.4 L 236.5 215.2 L 236.8 213.1 L 237.3 211.1 L 237.9 209.0 L 238.6 207.0 L 239.4 205.1 L 240.3 203.1 L 241.4 201.3 L 242.6 199.4 L 243.9 197.6 L 245.4 195.9 L 247.0 194.3 L 248.6 192.7 L 250.5 191.2 L 252.4 189.7 L 254.5 188.4 L 256.7 187.1 L 259.0 186.0 L 261.4 184.9 L 264.0 183.9 L 266.6 183.1 L 269.4 182.4 L 272.3 181.8 L 275.3 181.3 L 278.3 180.9 L 281.5 180.7 L 284.8 180.7 L 288.1 180.8 L 291.5 181.0 L 295.0 181.4 L 298.5 182.0 L 302.1 182.7 L 305.8 183.6 L 309.5 184.6 L 313.2 185.8 L 316.9 187.2 L 320.7 188.7 L 324.5 190.4 L 328.3 192.3 L 332.1 194.4 L 335.8 196.6 L 339.6 199.0 L 343.3 201.6 L 347.0 204.3 L 350.7 207.2 L 354.2 210.2 L 357.8 213.4 L 361.2 216.8 L 364.6 220.3 L 367.9 224.0 L 371.2 227.8 L 374.3 231.8 L 377.3 235.9 L 380.2 240.1 L 383.0 244.5 L 385.6 248.9 L 388.1 253.5 L 390.5 258.2 L 392.7 263.0 L 394.8 267.9 L 396.7 272.9 L 398.5 278.0 L 400.0 283.1 L 401.5 288.3 L 402.7 293.6 L 403.7 298.9 L 404.6 304.3 L 405.2 309.7 L 405.7 315.1 L 405.9 320.6 L 406.0 326.0 L 405.9 331.5 L 405.5 337.0 L 404.9 342.4 L 404.2 347.8 L 403.2 353.2 L 402.0 358.6 L 400.5 363.9 L 398.9 369.2 L 397.0 374.4 L 395.0 379.5 L 392.7 384.6 L 390.2 389.5 L 387.5 394.4 L 384.5 399.2 L 381.4 403.9 L 378.0 408.4 L 374.4 412.9 L 370.6 417.2 L 366.6 421.3 L 362.4 425.4 L 358.0 429.3 L 353.3 433.0 L 348.5 436.5 L 343.5 439.9 L 338.2 443.1 L 332.8 446.1 L 327.2 448.9 L 321.4 451.5 L 315.5 453.9 L 309.3 456.1 L 303.0 458.1 L 296.6 459.8 L 289.9 461.3 L 283.2 462.6 L 276.3 463.6 L 269.2 464.3 L 262.1 464.8 L 254.8 465.1 L 247.4 465.0 L 239.9 464.7 L 232.4 464.1 L 224.7 463.3 L 217.0 462.1 L 209.2 460.7 L 201.4 459.0 L 193.5 457.0 L 185.6 454.7 L 177.7 452.1 L 169.8 449.2 L 161.9 446.0 L 154.0 442.6 L 146.2 438.8 L 138.4 434.8 L 130.6 430.5 L 123.0 425.9 L 115.4 421.0 L 107.8 415.8 L 100.4 410.4 L 93.1 404.7 L 86.0 398.8 L 78.9 392.6 L 72.0 386.1 L 65.3 379.4 L 58.8 372.5 L 52.4 365.3 L 46.2 357.9 L 40.2 350.3 L 34.4 342.5 L 28.9 334.5 L 23.6 326.3 L 18.5 317.9 L 13.7 309.4 L 9.2 300.7 L 4.9 291.8 L 0.9 282.9 L -2.9 273.8 L -6.3 264.5 L -9.4 255.2 L -12.3 245.8 L -14.8 236.3 L -17.0 226.8 L -18.9 217.2 L -20.4 207.5 L -21.6 197.8 L -22.5 188.2 L -23.0 178.5 L -23.2 168.8 L -23.1 159.1 L -22.6 149.5 L -21.8 139.9 L -20.6 130.4 L -19.0 120.9 L -17.1 111.6 L -14.9 102.3 L -12.3 93.2 L -9.4 84.1 L -6.1 75.2 L -2.4 66.5 L 1.5 57.9 L 5.9 49.4 L 10.5 41.2 L 15.5 33.1 L 20.9 25.2 L 26.5 17.6 L 32.5 10.1 L 38.8 2.9 L 45.4 -4.1 L 52.4 -10.8 L 59.6 -17.3 L 67.2 -23.4 L 75.0 -29.4 L 83.2 -35.0 L 91.6 -40.3 L 100.3 -45.3 L 109.3 -50.0 L 118.5 -54.4 L 128.0 -58.4 L 111.4 -105.6 L 100.1 -100.7 L 89.1 -95.5 L 78.4 -89.8 L 68.0 -83.8 L 57.9 -77.4 L 48.2 -70.6 L 38.7 -63.5 L 29.6 -56.0 L 20.9 -48.2 L 12.5 -40.0 L 4.6 -31.6 L -3.1 -22.8 L -10.3 -13.8 L -17.1 -4.5 L -23.5 5.0 L -29.5 14.7 L -35.1 24.7 L -40.3 34.9 L -45.0 45.3 L -49.3 55.8 L -53.2 66.5 L -56.7 77.3 L -59.8 88.2 L -62.4 99.3 L -64.6 110.4 L -66.4 121.6 L -67.7 132.8 L -68.7 144.1 L -69.2 155.5 L -69.3 166.8 L -69.0 178.1 L -68.3 189.5 L -67.2 200.7 L -65.7 212.0 L -63.9 223.2 L -61.6 234.3 L -59.0 245.3 L -56.0 256.2 L -52.7 267.0 L -49.0 277.7 L -45.0 288.2 L -40.7 298.6 L -36.0 308.9 L -31.1 318.9 L -25.8 328.8 L -20.2 338.5 L -14.4 348.0 L -8.3 357.2 L -1.9 366.3 L 4.7 375.1 L 11.6 383.7 L 18.7 392.0 L 26.0 400.1 L 33.5 407.9 L 41.2 415.5 L 49.1 422.7 L 57.1 429.7 L 65.3 436.4 L 73.7 442.8 L 82.2 448.9 L 90.8 454.7 L 99.5 460.2 L 108.3 465.3 L 117.2 470.2 L 126.2 474.7 L 135.3 478.9 L 144.4 482.8 L 153.5 486.4 L 162.6 489.6 L 171.8 492.5 L 181.0 495.1 L 190.1 497.4 L 199.2 499.3 L 208.3 500.9 L 217.4 502.1 L 226.4 503.1 L 235.3 503.7 L 244.2 503.9 L 253.0 503.9 L 261.6 503.6 L 270.2 502.9 L 278.6 501.9 L 286.9 500.6 L 295.1 499.1 L 303.1 497.2 L 311.0 495.0 L 318.6 492.5 L 326.2 489.8 L 333.5 486.8 L 340.6 483.5 L 347.5 480.0 L 354.2 476.2 L 360.7 472.2 L 367.0 467.9 L 373.0 463.4 L 378.8 458.7 L 384.3 453.8 L 389.6 448.7 L 394.6 443.4 L 399.4 437.9 L 403.8 432.3 L 408.1 426.5 L 412.0 420.5 L 415.7 414.5 L 419.1 408.3 L 422.2 402.0 L 425.0 395.6 L 427.6 389.2 L 429.8 382.6 L 431.8 376.0 L 433.5 369.4 L 435.0 362.7 L 436.1 355.9 L 437.0 349.2 L 437.6 342.5 L 438.0 335.7 L 438.1 329.0 L 437.9 322.3 L 437.5 315.7 L 436.8 309.1 L 435.9 302.5 L 434.8 296.1 L 433.4 289.6 L 431.9 283.3 L 430.1 277.1 L 428.1 270.9 L 425.8 264.9 L 423.4 259.0 L 420.9 253.2 L 418.1 247.5 L 415.1 242.0 L 412.0 236.6 L 408.8 231.4 L 405.4 226.3 L 401.8 221.3 L 398.1 216.6 L 394.3 212.0 L 390.4 207.5 L 386.4 203.3 L 382.2 199.2 L 378.0 195.3 L 373.7 191.6 L 369.3 188.1 L 364.9 184.8 L 360.4 181.7 L 355.9 178.7 L 351.3 176.0 L 346.7 173.5 L 342.1 171.2 L 337.4 169.0 L 332.8 167.1 L 328.1 165.4 L 323.5 163.9 L 318.9 162.5 L 314.3 161.4 L 309.8 160.5 L 305.3 159.8 L 300.8 159.2 L 296.4 158.9 L 292.1 158.8 L 287.8 158.8 L 283.6 159.1 L 279.6 159.5 L 275.6 160.1 L 271.7 160.9 L 267.9 161.8 L 264.2 162.9 L 260.7 164.2 L 257.3 165.6 L 254.0 167.2 L 250.8 169.0 L 247.8 170.9 L 245.0 172.9 L 242.3 175.1 L 239.8 177.4 L 237.4 179.8 L 235.3 182.3 L 233.3 184.9 L 231.5 187.6 L 229.9 190.4 L 228.5 193.3 L 227.2 196.3 L 226.2 199.3 L 225.4 202.3 L 224.8 205.4 L 224.4 208.5 L 224.3 211.6 L 224.3 214.7 L 224.6 217.8 L 225.1 220.8 L 225.7 223.9 L 226.6 226.8 L 227.8 229.7 L 229.1 232.6 L 230.7 235.3 L 232.5 238.0 L 234.6 240.5 L 237.0 243.0 L 239.8 245.2 L 244.1 247.0 Z" fill="#000"/>
  <path d="M 268.2 251.3 L 271.7 252.4 L 274.4 252.9 L 276.9 253.4 L 279.2 254.1 L 281.5 254.8 L 283.7 255.7 L 285.8 256.7 L 287.9 257.8 L 290.0 259.0 L 292.0 260.3 L 294.0 261.7 L 295.9 263.3 L 297.7 265.0 L 299.5 266.7 L 301.2 268.6 L 302.9 270.6 L 304.4 272.7 L 305.9 274.9 L 307.4 277.1 L 308.7 279.5 L 309.9 281.9 L 311.0 284.4 L 312.0 286.9 L 312.9 289.6 L 313.7 292.2 L 314.4 295.0 L 315.0 297.7 L 315.4 300.5 L 315.7 303.4 L 315.9 306.2 L 315.9 309.1 L 315.8 312.0 L 315.6 314.9 L 315.3 317.8 L 314.8 320.7 L 314.1 323.6 L 313.4 326.5 L 312.5 329.3 L 311.4 332.1 L 310.2 334.9 L 308.8 337.7 L 307.3 340.4 L 305.7 343.1 L 303.9 345.7 L 301.9 348.2 L 299.8 350.7 L 297.6 353.1 L 295.2 355.4 L 292.7 357.6 L 290.0 359.7 L 287.2 361.8 L 284.2 363.7 L 281.1 365.5 L 277.8 367.2 L 274.4 368.8 L 270.9 370.3 L 267.2 371.6 L 263.5 372.8 L 259.5 373.8 L 255.5 374.7 L 251.4 375.4 L 247.1 376.0 L 242.7 376.3 L 238.3 376.5 L 233.7 376.6 L 229.1 376.4 L 224.3 376.1 L 219.5 375.6 L 214.7 374.9 L 209.8 373.9 L 204.8 372.8 L 199.8 371.5 L 194.7 370.0 L 189.6 368.3 L 184.5 366.4 L 179.4 364.2 L 174.3 361.9 L 169.2 359.4 L 164.1 356.6 L 159.1 353.7 L 154.1 350.5 L 149.1 347.1 L 144.2 343.6 L 139.3 339.8 L 134.5 335.9 L 129.8 331.8 L 125.2 327.4 L 120.7 322.9 L 116.3 318.2 L 112.0 313.4 L 107.8 308.4 L 103.7 303.2 L 99.8 297.8 L 96.1 292.3 L 92.5 286.7 L 89.1 280.9 L 85.8 275.0 L 82.7 268.9 L 79.9 262.8 L 77.2 256.5 L 74.7 250.2 L 72.4 243.7 L 70.3 237.2 L 68.4 230.6 L 66.8 223.9 L 65.4 217.1 L 64.2 210.4 L 63.3 203.6 L 62.6 196.7 L 62.1 189.9 L 61.9 183.0 L 62.0 176.1 L 62.2 169.3 L 62.8 162.4 L 63.6 155.6 L 64.7 148.8 L 66.0 142.1 L 67.6 135.4 L 69.4 128.9 L 71.5 122.3 L 73.8 115.9 L 76.5 109.6 L 79.3 103.3 L 82.5 97.2 L 85.9 91.2 L 89.5 85.3 L 93.4 79.6 L 97.6 74.0 L 102.0 68.5 L 106.6 63.3 L 111.5 58.2 L 116.7 53.2 L 122.1 48.5 L 127.7 43.9 L 133.5 39.6 L 139.6 35.5 L 145.9 31.6 L 152.5 27.9 L 159.2 24.5 L 166.1 21.3 L 173.3 18.3 L 180.6 15.6 L 188.2 13.2 L 195.9 11.1 L 203.8 9.2 L 211.9 7.6 L 220.1 6.3 L 228.4 5.4 L 236.9 4.7 L 245.6 4.3 L 254.3 4.2 L 263.2 4.5 L 272.2 5.1 L 281.2 6.0 L 290.3 7.2 L 299.5 8.7 L 308.7 10.6 L 318.0 12.9 L 327.3 15.4 L 336.6 18.3 L 345.9 21.5 L 355.2 25.1 L 364.5 29.0 L 373.7 33.2 L 382.9 37.8 L 392.0 42.7 L 401.0 47.9 L 410.0 53.4 L 418.8 59.3 L 427.5 65.4 L 436.1 71.9 L 444.6 78.7 L 452.9 85.7 L 461.0 93.1 L 468.9 100.7 L 476.6 108.6 L 484.2 116.8 L 491.5 125.2 L 498.6 133.8 L 505.4 142.7 L 512.0 151.8 L 518.3 161.2 L 524.3 170.7 L 530.1 180.4 L 535.5 190.4 L 540.7 200.4 L 545.5 210.7 L 550.1 221.1 L 554.2 231.6 L 558.1 242.2 L 561.6 252.9 L 564.7 263.8 L 567.5 274.7 L 569.9 285.7 L 572.0 296.7 L 573.6 307.7 L 574.9 318.8 L 575.8 329.9 L 576.4 341.0 L 576.5 352.1 L 626.4 354.3 L 626.2 341.5 L 625.6 328.6 L 624.5 315.8 L 622.9 303.0 L 620.9 290.3 L 618.5 277.7 L 615.7 265.1 L 612.4 252.6 L 608.8 240.3 L 604.7 228.1 L 600.3 216.0 L 595.4 204.0 L 590.3 192.3 L 584.7 180.7 L 578.8 169.3 L 572.6 158.2 L 566.0 147.2 L 559.1 136.5 L 551.9 126.0 L 544.4 115.7 L 536.6 105.8 L 528.6 96.1 L 520.3 86.6 L 511.8 77.5 L 503.0 68.7 L 494.0 60.1 L 484.8 51.9 L 475.4 44.0 L 465.8 36.5 L 456.1 29.2 L 446.2 22.3 L 436.1 15.8 L 426.0 9.6 L 415.7 3.8 L 405.3 -1.7 L 394.8 -6.8 L 384.3 -11.6 L 373.7 -15.9 L 363.0 -19.9 L 352.3 -23.5 L 341.6 -26.8 L 330.9 -29.7 L 320.2 -32.1 L 309.6 -34.3 L 298.9 -36.0 L 288.3 -37.3 L 277.8 -38.3 L 267.3 -38.9 L 256.9 -39.1 L 246.7 -39.0 L 236.5 -38.5 L 226.4 -37.6 L 216.5 -36.4 L 206.7 -34.8 L 197.1 -32.8 L 187.7 -30.5 L 178.4 -27.9 L 169.3 -24.9 L 160.5 -21.6 L 151.8 -18.0 L 143.4 -14.1 L 135.2 -9.9 L 127.2 -5.3 L 119.5 -0.5 L 112.0 4.6 L 104.8 10.0 L 97.9 15.6 L 91.3 21.5 L 85.0 27.6 L 78.9 34.0 L 73.2 40.5 L 67.8 47.3 L 62.6 54.3 L 57.8 61.4 L 53.4 68.7 L 49.2 76.2 L 45.4 83.7 L 41.9 91.5 L 38.7 99.3 L 35.8 107.2 L 33.3 115.2 L 31.1 123.3 L 29.2 131.5 L 27.7 139.7 L 26.5 147.9 L 25.6 156.2 L 25.0 164.5 L 24.7 172.7 L 24.7 181.0 L 25.0 189.2 L 25.7 197.4 L 26.6 205.6 L 27.8 213.7 L 29.3 221.7 L 31.0 229.6 L 33.1 237.5 L 35.3 245.3 L 37.9 252.9 L 40.7 260.5 L 43.7 267.9 L 46.9 275.2 L 50.4 282.3 L 54.1 289.3 L 58.0 296.2 L 62.1 302.8 L 66.4 309.4 L 70.8 315.7 L 75.4 321.8 L 80.2 327.8 L 85.2 333.6 L 90.2 339.1 L 95.5 344.5 L 100.8 349.6 L 106.3 354.6 L 111.8 359.3 L 117.5 363.8 L 123.2 368.0 L 129.0 372.1 L 134.9 375.9 L 140.8 379.5 L 146.8 382.8 L 152.9 385.9 L 158.9 388.8 L 165.0 391.5 L 171.1 393.9 L 177.2 396.0 L 183.2 398.0 L 189.3 399.6 L 195.4 401.1 L 201.4 402.3 L 207.3 403.3 L 213.2 404.0 L 219.1 404.6 L 224.9 404.8 L 230.6 404.9 L 236.2 404.8 L 241.7 404.4 L 247.2 403.8 L 252.5 403.0 L 257.7 402.0 L 262.8 400.8 L 267.7 399.4 L 272.6 397.8 L 277.3 396.0 L 281.8 394.0 L 286.2 391.8 L 290.4 389.5 L 294.5 387.0 L 298.4 384.4 L 302.1 381.6 L 305.6 378.7 L 309.0 375.7 L 312.1 372.5 L 315.1 369.2 L 317.9 365.8 L 320.4 362.3 L 322.8 358.7 L 325.0 355.0 L 326.9 351.3 L 328.7 347.5 L 330.2 343.6 L 331.6 339.8 L 332.7 335.9 L 333.7 331.9 L 334.4 328.0 L 334.9 324.0 L 335.3 320.1 L 335.4 316.2 L 335.4 312.3 L 335.1 308.5 L 334.7 304.7 L 334.1 300.9 L 333.3 297.3 L 332.4 293.7 L 331.3 290.1 L 330.0 286.7 L 328.6 283.4 L 327.0 280.1 L 325.3 277.0 L 323.5 274.0 L 321.5 271.1 L 319.4 268.3 L 317.2 265.7 L 314.9 263.2 L 312.5 260.9 L 310.0 258.7 L 307.4 256.7 L 304.7 254.9 L 302.0 253.2 L 299.2 251.7 L 296.3 250.4 L 293.3 249.3 L 290.4 248.5 L 287.3 247.8 L 284.3 247.4 L 281.2 247.3 L 278.0 247.4 L 274.9 247.9 L 271.6 248.8 L 268.2 251.3 Z" fill="#000"/>
  <circle cx="256.0" cy="256.0" r="10" fill="#000"/>
  <path d="M 268.7 243.3 L 268.6 234.2 L 271.2 227.9 L 274.3 221.9 L 277.5 216.2 L 280.9 210.7 L 284.4 205.2 L 288.0 199.8 L 291.6 194.5 L 295.3 189.3 L 299.1 184.1 L 302.9 178.9 L 306.7 173.7 L 310.5 168.6 L 314.3 163.5 L 318.2 158.4 L 322.1 153.4 L 326.0 148.3 L 330.0 143.3 L 333.9 138.3 L 337.9 133.3 L 341.9 128.3 L 345.8 123.3 L 349.8 118.4 L 353.8 113.4 L 357.9 108.5 L 361.9 103.6 L 365.9 98.6 L 370.0 93.7 L 374.0 88.8 L 378.1 83.9 L 382.1 79.0 L 386.2 74.1 L 390.3 69.3 L 394.4 64.4 L 398.5 59.5 L 402.6 54.7 L 406.7 49.8 L 410.8 45.0 L 414.9 40.1 L 419.0 35.3 L 423.1 30.4 L 427.2 25.6 L 431.4 20.8 L 435.5 15.9 L 439.6 11.1 L 443.8 6.3 L 447.9 1.5 L 452.1 -3.3 L 456.2 -8.1 L 460.4 -12.9 L 464.5 -17.7 L 468.7 -22.5 L 472.9 -27.3 L 477.0 -32.1 L 481.2 -36.9 L 485.4 -41.7 L 489.5 -46.5 L 493.7 -51.2 L 497.9 -56.0 L 502.1 -60.8 L 572.8 9.9 L 568.0 14.1 L 563.2 18.3 L 558.5 22.5 L 553.7 26.6 L 548.9 30.8 L 544.1 35.0 L 539.3 39.1 L 534.5 43.3 L 529.7 47.5 L 524.9 51.6 L 520.1 55.8 L 515.3 59.9 L 510.5 64.1 L 505.7 68.2 L 500.9 72.4 L 496.1 76.5 L 491.2 80.6 L 486.4 84.8 L 481.6 88.9 L 476.7 93.0 L 471.9 97.1 L 467.0 101.2 L 462.2 105.3 L 457.3 109.4 L 452.5 113.5 L 447.6 117.6 L 442.7 121.7 L 437.9 125.8 L 433.0 129.9 L 428.1 133.9 L 423.2 138.0 L 418.3 142.0 L 413.4 146.1 L 408.4 150.1 L 403.5 154.1 L 398.6 158.2 L 393.6 162.2 L 388.7 166.2 L 383.7 170.1 L 378.7 174.1 L 373.7 178.1 L 368.7 182.0 L 363.7 186.0 L 358.6 189.9 L 353.6 193.8 L 348.5 197.7 L 343.4 201.5 L 338.3 205.3 L 333.1 209.1 L 327.9 212.9 L 322.7 216.7 L 317.5 220.4 L 312.2 224.0 L 306.8 227.6 L 301.3 231.1 L 295.8 234.5 L 290.1 237.7 L 284.1 240.8 L 277.8 243.4 L 268.7 243.3 Z" fill="#000"/>
  <g clip-path="url(#clip-front-quasar)">
    <path d="M 275.8 236.2 L 276.6 228.1 L 279.6 222.1 L 282.9 216.4 L 286.4 211.0 L 290.0 205.6 L 293.7 200.4 L 297.5 195.2 L 301.3 190.0 L 305.1 184.9 L 309.0 179.9 L 313.0 174.8 L 316.9 169.8 L 320.9 164.8 L 324.8 159.8 L 328.8 154.9 L 332.8 149.9 L 336.9 145.0 L 340.9 140.1 L 345.0 135.2 L 349.0 130.3 L 353.1 125.4 L 357.2 120.6 L 361.3 115.7 L 365.4 110.8 L 369.5 106.0 L 373.6 101.1 L 377.7 96.3 L 381.9 91.5 L 386.0 86.7 L 390.1 81.9 L 394.3 77.0 L 398.5 72.2 L 402.6 67.4 L 406.8 62.6 L 410.9 57.9 L 415.1 53.1 L 419.3 48.3 L 423.5 43.5 L 427.7 38.7 L 431.8 34.0 L 436.0 29.2 L 440.2 24.4 L 444.4 19.7 L 448.6 14.9 L 452.8 10.2 L 457.0 5.4 L 461.2 0.7 L 465.5 -4.1 L 469.7 -8.8 L 473.9 -13.5 L 478.1 -18.3 L 482.3 -23.0 L 486.6 -27.7 L 490.8 -32.5 L 495.0 -37.2 L 499.3 -41.9 L 503.5 -46.6 L 507.7 -51.4 L 512.0 -56.1 L 516.2 -60.8 L 572.8 -4.2 L 568.1 0.0 L 563.4 4.3 L 558.6 8.5 L 553.9 12.7 L 549.2 17.0 L 544.5 21.2 L 539.7 25.4 L 535.0 29.7 L 530.3 33.9 L 525.5 38.1 L 520.8 42.3 L 516.1 46.5 L 511.3 50.8 L 506.6 55.0 L 501.8 59.2 L 497.1 63.4 L 492.3 67.6 L 487.6 71.8 L 482.8 76.0 L 478.0 80.2 L 473.3 84.3 L 468.5 88.5 L 463.7 92.7 L 458.9 96.9 L 454.1 101.1 L 449.4 105.2 L 444.6 109.4 L 439.8 113.5 L 435.0 117.7 L 430.1 121.9 L 425.3 126.0 L 420.5 130.1 L 415.7 134.3 L 410.9 138.4 L 406.0 142.5 L 401.2 146.6 L 396.3 150.7 L 391.4 154.8 L 386.6 158.9 L 381.7 163.0 L 376.8 167.0 L 371.9 171.1 L 367.0 175.1 L 362.1 179.2 L 357.1 183.2 L 352.2 187.2 L 347.2 191.1 L 342.2 195.1 L 337.2 199.0 L 332.1 203.0 L 327.1 206.9 L 322.0 210.7 L 316.8 214.5 L 311.6 218.3 L 306.4 222.0 L 301.0 225.6 L 295.6 229.1 L 289.9 232.4 L 283.9 235.4 L 275.8 236.2 Z" fill="#000"/>
    <line x1="274.4" y1="234.8" x2="623.7" y2="-114.5" stroke="#ffffff" stroke-width="3.0" opacity="1.0"/>
    <line x1="275.8" y1="236.2" x2="625.1" y2="-113.1" stroke="#ffffff" stroke-width="3.0" opacity="1.0"/>
    <line x1="277.2" y1="237.6" x2="626.5" y2="-111.7" stroke="#ffffff" stroke-width="3.0" opacity="1.0"/>
    <line x1="273.2" y1="220.1" x2="615.8" y2="-122.4" stroke="#ffffff" stroke-width="2.6" opacity="0.91"/>
    <line x1="269.6" y1="207.5" x2="607.7" y2="-130.5" stroke="#ffffff" stroke-width="2.4" opacity="0.92"/>
    <line x1="299.6" y1="249.1" x2="643.4" y2="-94.8" stroke="#ffffff" stroke-width="3.8" opacity="0.93"/>
    <line x1="309.6" y1="230.5" x2="639.1" y2="-99.1" stroke="#ffffff" stroke-width="3.1" opacity="0.92"/>
    <line x1="283.3" y1="218.6" x2="620.1" y2="-118.1" stroke="#ffffff" stroke-width="5.4" opacity="0.96"/>
    <line x1="308.1" y1="238.0" x2="642.2" y2="-96.0" stroke="#ffffff" stroke-width="4.2" opacity="0.98"/>
    <line x1="264.6" y1="213.0" x2="607.9" y2="-130.3" stroke="#ffffff" stroke-width="4.6" opacity="0.98"/>
    <line x1="326.7" y1="225.9" x2="645.4" y2="-92.8" stroke="#ffffff" stroke-width="3.8" opacity="0.98"/>
    <line x1="282.8" y1="243.1" x2="632.1" y2="-106.1" stroke="#66aaff" stroke-width="5.7" opacity="0.96"/>
    <line x1="291.0" y1="240.0" x2="634.6" y2="-103.6" stroke="#ffffff" stroke-width="3.8" opacity="0.93"/>
    <line x1="315.0" y1="226.2" x2="639.7" y2="-98.5" stroke="#66aaff" stroke-width="5.1" opacity="0.91"/>
    <line x1="276.1" y1="204.0" x2="609.1" y2="-129.1" stroke="#ffffff" stroke-width="5.7" opacity="0.96"/>
    <line x1="285.9" y1="226.1" x2="625.1" y2="-113.1" stroke="#ffffff" stroke-width="3.8" opacity="0.93"/>
    <line x1="290.5" y1="250.4" x2="639.6" y2="-98.6" stroke="#ffffff" stroke-width="3.6" opacity="0.92"/>
    <line x1="294.1" y1="190.6" x2="611.5" y2="-126.8" stroke="#ffffff" stroke-width="2.6" opacity="0.92"/>
    <line x1="299.8" y1="243.5" x2="640.8" y2="-97.5" stroke="#ffffff" stroke-width="3.0" opacity="0.96"/>
    <line x1="315.7" y1="223.7" x2="638.9" y2="-99.4" stroke="#66aaff" stroke-width="4.6" opacity="0.91"/>
    <line x1="297.7" y1="254.6" x2="645.3" y2="-92.9" stroke="#ffffff" stroke-width="5.0" opacity="0.95"/>
    <line x1="256.6" y1="217.0" x2="605.9" y2="-132.3" stroke="#ffffff" stroke-width="3.5" opacity="0.92"/>
    <line x1="323.7" y1="229.5" x2="645.7" y2="-92.5" stroke="#ffffff" stroke-width="2.1" opacity="0.99"/>
    <line x1="281.0" y1="200.4" x2="609.8" y2="-128.4" stroke="#ffffff" stroke-width="5.5" opacity="0.99"/>
    <line x1="262.9" y1="223.3" x2="612.2" y2="-126.0" stroke="#ffffff" stroke-width="4.6" opacity="0.99"/>
    <line x1="258.6" y1="218.8" x2="607.8" y2="-130.4" stroke="#ffffff" stroke-width="5.0" opacity="0.97"/>
    <line x1="292.8" y1="233.5" x2="632.3" y2="-106.0" stroke="#ffffff" stroke-width="3.8" opacity="0.95"/>
    <line x1="269.2" y1="229.5" x2="618.5" y2="-119.8" stroke="#ffffff" stroke-width="4.2" opacity="0.96"/>
    <line x1="263.0" y1="223.4" x2="612.3" y2="-125.9" stroke="#ffffff" stroke-width="5.4" opacity="0.91"/>
    <line x1="261.9" y1="221.9" x2="611.0" y2="-127.2" stroke="#66aaff" stroke-width="5.7" opacity="0.96"/>
  </g>
  <line x1="282.6" y1="247.2" x2="600.5" y2="104.7" stroke="#ffffff" stroke-width="4.9" opacity="0.9"/>
  <line x1="281.8" y1="245.0" x2="647.6" y2="56.7" stroke="#ffffff" stroke-width="2.1" opacity="0.9"/>
  <line x1="280.9" y1="243.2" x2="696.7" y2="39.9" stroke="#ffffff" stroke-width="3.0" opacity="0.9"/>
  <line x1="264.6" y1="229.3" x2="366.6" y2="-107.7" stroke="#ffffff" stroke-width="2.2" opacity="0.9"/>
  <line x1="266.0" y1="229.8" x2="376.8" y2="-141.7" stroke="#ccddff" stroke-width="4.2" opacity="0.9"/>
  <line x1="283.9" y1="253.3" x2="600.6" y2="213.2" stroke="#ccddff" stroke-width="4.9" opacity="0.9"/>
  <line x1="268.6" y1="230.8" x2="435.4" y2="-223.5" stroke="#ccddff" stroke-width="2.2" opacity="0.9"/>
  <line x1="284.0" y1="258.3" x2="734.2" y2="252.4" stroke="#ffffff" stroke-width="3.7" opacity="0.9"/>
</svg>